<?xml version="1.0" encoding="UTF-8"?>
<svg id="Layer_1" data-name="Layer 1" xmlns="http://www.w3.org/2000/svg" xmlns:xlink="http://www.w3.org/1999/xlink" viewBox="0 0 40 40">
  <defs>
    <style>
      .cls-1 {
        fill: none;
      }

      .cls-2 {
        clip-path: url(#clippath);
      }

      .cls-3 {
        fill-rule: evenodd;
      }
    </style>
    <clipPath id="clippath">
      <path class="cls-1" d="M20,0h0C31.05,0,40,8.95,40,20h0c0,11.05-8.95,20-20,20h0C8.95,40,0,31.05,0,20H0C0,8.95,8.95,0,20,0Z"/>
    </clipPath>
  </defs>
  <g class="cls-2">
    <path class="cls-3" d="M17.8,23.25c.62,.42,1.39,.68,2.2,.68,2.15,0,3.89-1.76,3.89-3.93,0-.82-.25-1.59-.67-2.22l-1.06,1.07c.18,.33,.27,.73,.27,1.14,0,1.35-1.09,2.45-2.43,2.45-.41,0-.8-.1-1.13-.28l-1.06,1.07Zm8.63-8.7c1.41,1.3,2.61,3.05,3.51,5.16,.08,.19,.08,.4,0,.58-2.09,4.9-5.81,7.84-9.94,7.84h0c-1.88,0-3.69-.62-5.28-1.75l-1.89,1.91c-.15,.15-.33,.22-.52,.22s-.38-.07-.52-.22c-.24-.25-.28-.64-.09-.93l.03-.04,14.43-14.56s.04-.04,.05-.06h0s.04-.04,.05-.06l.92-.93c.29-.29,.75-.29,1.03,0,.29,.29,.29,.76,0,1.04l-1.78,1.79Zm-10.33,5.46c0,.26,.03,.51,.07,.75l-3.61,3.64c-.98-1.14-1.82-2.52-2.5-4.11-.08-.18-.08-.39,0-.58,2.09-4.9,5.81-7.83,9.93-7.83h0c1.4,0,2.75,.33,4,.96l-3.26,3.29c-.23-.04-.49-.07-.74-.07-2.16,0-3.9,1.76-3.9,3.94Z"/>
  </g>
</svg>