<?xml version="1.0" encoding="UTF-8"?>
<svg id="Layer_1" data-name="Layer 1" xmlns="http://www.w3.org/2000/svg" xmlns:xlink="http://www.w3.org/1999/xlink" viewBox="0 0 40 40">
  <defs>
    <style>
      .cls-1 {
        fill: none;
      }

      .cls-2 {
        clip-path: url(#clippath);
      }

      .cls-3 {
        fill-rule: evenodd;
      }
    </style>
    <clipPath id="clippath">
      <path class="cls-1" d="M20,0h0C31.05,0,40,8.95,40,20h0c0,11.05-8.95,20-20,20h0C8.95,40,0,31.05,0,20H0C0,8.95,8.95,0,20,0Z"/>
    </clipPath>
  </defs>
  <g class="cls-2">
    <path class="cls-3" d="M16.1,20c0,2.13,1.75,3.87,3.9,3.87s3.89-1.74,3.89-3.87-1.75-3.88-3.89-3.88-3.9,1.74-3.9,3.88Zm9.64-5.95c1.71,1.32,3.16,3.25,4.2,5.66,.08,.18,.08,.4,0,.57-2.09,4.83-5.8,7.72-9.94,7.72h0c-4.13,0-7.84-2.89-9.93-7.72-.08-.17-.08-.39,0-.57,2.09-4.83,5.8-7.71,9.93-7.71h0c2.07,0,4.03,.72,5.74,2.05Zm-5.74,8.37c1.34,0,2.43-1.09,2.43-2.41s-1.09-2.42-2.43-2.42c-.12,0-.23,0-.34,.03-.04,1.07-.92,1.92-2,1.92h-.05c-.03,.16-.05,.31-.05,.48,0,1.33,1.09,2.41,2.44,2.41Z"/>
  </g>
</svg>