<?xml version="1.0" encoding="UTF-8"?>
<svg id="Layer_1" data-name="Layer 1" xmlns="http://www.w3.org/2000/svg" viewBox="0 0 24 24">
  <defs>
    <style>
      .cls-1, .cls-2 {
        fill: #ff6e00;
      }

      .cls-2 {
        isolation: isolate;
        opacity: .4;
      }
    </style>
  </defs>
  <path class="cls-1" d="M14.86,13.77l6.51-6.53c.41-.41,.64-.97,.64-1.55v-1.91c0-1.2-.95-1.78-2.13-1.78H4.13c-1.18,0-2.13,.58-2.13,1.78v1.95c0,.55,.21,1.08,.58,1.49l5.98,6.52c.11,.12,.27,.19,.44,.19l5.45,.02c.16,0,.31-.06,.42-.18Z"/>
  <path class="cls-2" d="M8.73,13.87v7.34c0,.27,.13,.52,.35,.66,.13,.08,.27,.13,.42,.13,.11,0,.22-.02,.32-.07l4.41-2.05c.28-.13,.45-.41,.45-.72v-5.29h-5.95Z"/>
</svg>