<?xml version="1.0" encoding="UTF-8"?>
<svg id="Layer_1" data-name="Layer 1" xmlns="http://www.w3.org/2000/svg" viewBox="0 0 18 18">
  <path d="M12.25,1.31H5.75C3.14,1.31,1.31,3.21,1.31,5.94v6.13c0,2.72,1.82,4.62,4.44,4.62h6.5c2.61,0,4.44-1.9,4.44-4.62V5.94c0-2.72-1.82-4.62-4.44-4.62Zm2.94,10.75c0,1.93-1.13,3.12-2.94,3.12H5.75c-1.81,0-2.94-1.2-2.94-3.12V5.94c0-1.9,1.15-3.12,2.94-3.12h6.5c1.81,0,2.94,1.2,2.94,3.12v6.13Z"/>
  <path d="M12.76,8.25h-2.12s0,0,0,0,0,0,0,0h-2.01c-.31-.81-1.08-1.39-2-1.39-1.18,0-2.14,.96-2.14,2.14s.96,2.14,2.14,2.14c.91,0,1.69-.58,2-1.39h1.26v.64c0,.41,.34,.75,.75,.75s.75-.34,.75-.75v-.64h.62v.64c0,.41,.34,.75,.75,.75s.75-.34,.75-.75v-1.39c0-.41-.34-.75-.75-.75Zm-6.13,1.39c-.35,0-.64-.29-.64-.64s.29-.64,.64-.64,.64,.29,.64,.64-.29,.64-.64,.64Z"/>
</svg>