<?xml version="1.0" encoding="UTF-8"?>
<svg id="Layer_1" data-name="Layer 1" xmlns="http://www.w3.org/2000/svg" viewBox="0 0 24 24">
  <defs>
    <style>
      .cls-1 {
        fill: #fff;
      }

      .cls-2 {
        fill-rule: evenodd;
      }
    </style>
  </defs>
  <path class="cls-2" d="M12,2C6.48,2,2,6.48,2,12s4.48,10,10,10,10-4.48,10-10S17.52,2,12,2Z"/>
  <path class="cls-1" d="M9.5,8.53c.16-.14,.33-.27,.52-.4,.19-.13,.4-.24,.62-.33s.46-.17,.71-.22c.26-.06,.53-.08,.83-.08,.41,0,.77,.06,1.11,.17,.34,.11,.62,.27,.86,.48,.24,.21,.42,.45,.55,.75,.13,.29,.2,.62,.2,.99s-.05,.66-.15,.92c-.1,.26-.23,.48-.39,.67-.15,.19-.32,.36-.51,.5-.18,.14-.35,.27-.52,.4-.16,.12-.31,.24-.43,.36s-.19,.25-.21,.4l-.16,1.02h-1.18l-.12-1.14c-.03-.22,0-.41,.09-.57,.09-.17,.21-.32,.36-.45,.15-.14,.32-.27,.51-.4,.19-.13,.36-.27,.53-.42,.16-.15,.3-.32,.41-.51,.11-.19,.17-.42,.17-.68,0-.17-.03-.32-.1-.45-.06-.14-.15-.25-.26-.34-.11-.1-.25-.17-.41-.22-.15-.05-.32-.08-.5-.08-.27,0-.49,.03-.68,.09-.18,.06-.34,.12-.47,.2-.13,.07-.23,.14-.32,.2-.09,.06-.17,.08-.24,.08-.17,0-.29-.07-.36-.21l-.45-.72Zm1.32,8.25c0-.14,.03-.28,.08-.41,.06-.13,.13-.24,.22-.34s.21-.17,.34-.22,.27-.08,.42-.08,.29,.03,.41,.08c.13,.06,.24,.13,.34,.22,.1,.09,.18,.21,.23,.34,.06,.13,.08,.27,.08,.41s-.03,.29-.08,.42c-.06,.13-.13,.24-.23,.33-.09,.09-.21,.17-.34,.22-.13,.06-.26,.08-.41,.08s-.29-.03-.42-.08c-.13-.05-.24-.12-.34-.22-.09-.09-.17-.2-.22-.33-.05-.13-.08-.27-.08-.42Z"/>
</svg>