<svg width="1642" height="91" viewBox="0 0 1642 91" fill="none" xmlns="http://www.w3.org/2000/svg">
<path d="M1641 45.9107H1642V46.3308L1641.7 46.6249L1641 45.9107ZM1641 15.7143L1641.7 15.0004L1642 15.2944V15.7143H1641ZM1 20.0714H0V19.6432L0.309893 19.3477L1 20.0714ZM1 51.2214L0.309893 51.9451L0 51.6496V51.2214H1ZM1626.5 60.1214H1625.5V59.7013L1625.8 59.4072L1626.5 60.1214ZM1627.21 90.7071C1626.82 91.0976 1626.18 91.0976 1625.79 90.7071L1619.43 84.3431C1619.04 83.9526 1619.04 83.3195 1619.43 82.9289C1619.82 82.5384 1620.45 82.5384 1620.84 82.9289L1626.5 88.5858L1632.16 82.9289C1632.55 82.5384 1633.18 82.5384 1633.57 82.9289C1633.96 83.3195 1633.96 83.9526 1633.57 84.3431L1627.21 90.7071ZM21 1L20.3099 0.276291L20.5996 0H21V1ZM21 70.2929V71.2929H20.5996L20.3099 71.0166L21 70.2929ZM1626 1V0H1626.41L1626.7 0.286125L1626 1ZM683 70.2929V69.2929H683.396L683.684 69.5637L683 70.2929ZM1640 45.9107V15.7143H1642V45.9107H1640ZM2 20.0714V51.2214H0V20.0714H2ZM1641.7 46.6249L1627.2 60.8356L1625.8 59.4072L1640.3 45.1965L1641.7 46.6249ZM1627.5 60.1214V90H1625.5V60.1214H1627.5ZM21.6901 1.72371L1.69011 20.7951L0.309893 19.3477L20.3099 0.276291L21.6901 1.72371ZM1.69011 50.4977L21.6901 69.5691L20.3099 71.0166L0.309893 51.9451L1.69011 50.4977ZM1640.3 16.4282L1625.3 1.71387L1626.7 0.286125L1641.7 15.0004L1640.3 16.4282ZM1626 2H21V0H1626V2ZM21 69.2929H683V71.2929H21V69.2929ZM683.684 69.5637L704.684 89.2708L703.316 90.7292L682.316 71.0221L683.684 69.5637Z" fill="#D6D7D8"/>
</svg>
