<?xml version="1.0" encoding="UTF-8"?>
<svg id="Layer_1" data-name="Layer 1" xmlns="http://www.w3.org/2000/svg" xmlns:xlink="http://www.w3.org/1999/xlink" viewBox="0 0 46.99 47.46">
  <defs>
    <style>
      .cls-1 {
        fill: none;
      }

      .cls-2 {
        clip-path: url(#clippath);
      }

      .cls-3 {
        fill: #d6d7d8;
      }
    </style>
    <clipPath id="clippath">
      <rect class="cls-1" x="0" y="0" width="143" height="48"/>
    </clipPath>
  </defs>
  <g class="cls-2">
    <path class="cls-3" d="M35.32,32.79l6.56,6.57,5.1-5.1-6.7-6.7-.02,.02c-3.56-3.33-9.13-3.31-12.6,.15l-.02,.02h0c-.66,.64-1.46,1.11-2.34,1.37-.88,.26-1.81,.29-2.71,.11-.9-.19-1.74-.59-2.44-1.18-.71-.59-1.26-1.34-1.6-2.19-.35-.85-.48-1.77-.38-2.69,.09-.91,.41-1.79,.92-2.55,.51-.76,1.2-1.39,2.01-1.82,.81-.43,1.71-.66,2.63-.66,1.57,0,3,.55,4.01,1.58l.04,.04c1.72,1.57,3.98,2.42,6.3,2.36,2.33-.05,4.54-1,6.19-2.65,3.44-3.44,3.63-9.02,.39-12.57l-.05-.06C31.4-2.36,16.38-2.27,7.05,7.05c-9.32,9.32-9.41,24.35-.21,33.56,8.82,8.82,22.98,9.11,32.36,.92l-4.78-4.78s-.22-.29-.56,0c-2.9,2.26-6.47,3.48-10.14,3.48-9.11,0-16.5-7.39-16.5-16.5S14.62,7.23,23.73,7.23c4.58,0,8.68,1.7,11.68,4.77l.05,.07c.25,.39,.34,.85,.27,1.31-.08,.45-.32,.86-.68,1.15-.36,.29-.81,.43-1.27,.41-.46-.03-.89-.22-1.22-.55l-.05-.05c-5.02-4.69-12.94-4.56-17.83,.34-5,5-5,13.1,0,18.1,4.97,4.97,13.01,5,18.02,.09h0s.03-.04,.04-.06c.71-.71,1.85-.69,2.59-.03Z"/>
  </g>
</svg>