<svg width="143" height="48" viewBox="0 0 143 48" fill="none" xmlns="http://www.w3.org/2000/svg">
<g clip-path="url(#clip0_53566_33863)">
<path d="M119.467 28.2852H115.249V18.1964C115.249 17.2175 114.764 16.7201 113.903 16.7201H112.498V30.7361H120.884V29.5986C120.884 28.8844 120.574 28.2852 119.467 28.2852ZM108.809 28.0728V18.0699C108.809 17.0837 108.376 16.7041 107.467 16.7041H106.06V29.1186C106.06 30.1892 106.633 30.7521 107.714 30.7521L108.809 30.7492V30.2779C108.809 30.2779 108.82 29.5899 108.809 28.0728ZM100.54 18.0786L97.4028 26.7172L94.4443 18.0757C94.0603 17.0386 93.5818 16.7041 92.485 16.7041H91.1963V17.1986C91.1963 17.1986 95.5163 29.0503 95.7432 29.667C95.9687 30.2866 96.4661 30.755 97.2559 30.755H98.7134L103.641 17.1666V16.7041H102.501C101.398 16.7041 100.923 17.0386 100.54 18.0786ZM83.1701 22.9557V19.1346H85.1876C86.3498 19.1346 86.9854 19.8052 86.9854 21.0168C86.9854 22.2517 86.3236 22.9557 85.1672 22.9557H83.1701ZM87.7636 24.6095C88.7468 24.0859 89.7912 22.9033 89.7912 20.9513C89.7912 18.3768 88.0312 16.6459 85.413 16.6459H80.4167V17.1244C80.4167 17.1244 80.3861 17.7892 80.4167 19.2539V30.7113H83.1701V25.4648H84.4618C85.0567 25.4648 85.1338 25.5041 85.3519 25.9346V25.9288L87.1178 29.4721C87.6225 30.5339 88.2145 30.7143 89.3418 30.7143H90.5258V30.1412L87.7636 24.6095ZM62.8269 26.7012C62.8123 26.7186 61.3839 28.3404 58.9999 28.3404C56.5854 28.3404 54.6901 26.2663 54.6901 23.6161C54.6901 20.9979 56.4763 19.0953 58.9476 19.0953C61.0756 19.0953 61.9628 20.8321 61.9628 20.8321C62.3047 20.5048 63.8974 18.9455 63.8974 18.9455C63.8974 18.9455 62.4719 16.483 58.9083 16.483C54.8938 16.483 51.8669 19.5506 51.8669 23.6161C51.8669 27.8153 54.9243 30.979 58.9825 30.979C62.4661 30.979 64.4225 28.7157 64.5054 28.6226L64.7352 28.3521L63.1847 26.2866L62.8269 26.7012ZM140.34 28.2968H135.388V24.9164H140.008V22.4292H135.388V19.1666H141.09V16.6997H132.639V30.7506H141.759V29.6117C141.759 28.8961 141.445 28.2968 140.342 28.2968M70.5883 24.5193L71.813 21.1041C71.8523 20.9877 71.8858 20.8684 71.9236 20.7404L72.037 21.1128L73.2589 24.5193H70.5883ZM78.2887 30.3884C78.0807 29.8881 77.6981 28.9339 77.4159 28.1339L73.605 17.8153C73.3796 17.2015 72.8865 16.7317 72.1025 16.7317H70.6378L66.3832 28.2444C66.2159 28.6779 65.8276 29.7775 65.6196 30.3608V30.7346H66.9869C68.0865 30.7346 68.5578 30.4059 68.9461 29.3746L69.8276 26.963H74.0283L74.9039 29.3746C75.285 30.4059 75.7621 30.7346 76.8589 30.7346H78.2887V30.3884ZM129.46 28.2852H125.238V18.1964C125.238 17.2175 124.754 16.7201 123.894 16.7201H122.488V30.7361H130.875V29.5986C130.875 28.8844 130.562 28.2852 129.458 28.2852M35.3229 32.7884L41.8858 39.3543L46.9839 34.2546L40.2829 27.5521L40.2654 27.5724C36.709 24.2415 31.1309 24.2604 27.6647 27.7237L27.6443 27.7455L27.6399 27.7426C26.9828 28.3839 26.1781 28.8539 25.2967 29.1111C24.4152 29.3683 23.4841 29.4049 22.5852 29.2176C21.6863 29.0303 20.8472 28.625 20.1418 28.0372C19.4364 27.4494 18.8863 26.6972 18.5399 25.8468C18.1936 24.9964 18.0616 24.0739 18.1556 23.1606C18.2496 22.2472 18.5666 21.3709 19.0789 20.6089C19.5911 19.8469 20.2829 19.2224 21.0932 18.7906C21.9035 18.3588 22.8076 18.1327 23.7258 18.1324C25.2909 18.1324 26.7221 18.6808 27.7403 19.715L27.7825 19.7543C29.5012 21.324 31.7589 22.1708 34.086 22.1185C36.4132 22.0662 38.6305 21.1189 40.277 19.4735C43.717 16.0306 43.9105 10.4583 40.6654 6.90771L40.6145 6.85098C31.4014 -2.36211 16.3789 -2.27193 7.05086 7.05462C-2.27278 16.3783 -2.36296 31.4052 6.84431 40.6124C15.6632 49.4357 29.8261 49.7208 39.2021 41.5332L34.4239 36.7492C34.4239 36.7492 34.1999 36.4582 33.8654 36.7521C30.9674 39.0088 27.3988 40.2333 23.7258 40.2313C14.6174 40.2313 7.22831 32.8452 7.22831 23.7339C7.22831 14.6139 14.6174 7.22916 23.7258 7.22916C28.3061 7.22916 32.4036 8.92807 35.4029 12.0015L35.4567 12.0743C35.7033 12.4628 35.7978 12.9287 35.722 13.3827C35.6462 13.8366 35.4055 14.2466 35.046 14.5339C34.6866 14.8213 34.2336 14.9658 33.7742 14.9398C33.3147 14.9137 32.881 14.7189 32.5563 14.3928L32.5054 14.3448C27.4829 9.65244 19.5701 9.78335 14.6727 14.6808C9.67195 19.6772 9.67195 27.7833 14.6727 32.7855C19.6429 37.7572 27.6865 37.7833 32.6887 32.8743H32.693C32.7082 32.8557 32.7223 32.8363 32.7352 32.8161C33.445 32.1092 34.5883 32.1295 35.3229 32.7884Z" fill="#FF6E00"/>
</g>
<defs>
<clipPath id="clip0_53566_33863">
<rect width="142.545" height="48" fill="white"/>
</clipPath>
</defs>
</svg>
