<svg width="40" height="40" viewBox="0 0 40 40" fill="none" xmlns="http://www.w3.org/2000/svg">
<g clip-path="url(#clip0_53809_25958)">
<path fill-rule="evenodd" clip-rule="evenodd" d="M24.334 10.7502H15.665C12.644 10.7502 10.75 12.8892 10.75 15.9162V24.0842C10.75 27.1112 12.635 29.2502 15.665 29.2502H24.333C27.364 29.2502 29.25 27.1112 29.25 24.0842V15.9162C29.25 12.8892 27.364 10.7502 24.334 10.7502Z" stroke="#FF6E00" stroke-width="1.5" stroke-linecap="round" stroke-linejoin="round"/>
<path fill-rule="evenodd" clip-rule="evenodd" d="M18.6913 20.0002C18.6913 21.0222 17.8623 21.8522 16.8393 21.8522C15.8173 21.8522 14.9883 21.0222 14.9883 20.0002C14.9883 18.9782 15.8173 18.1482 16.8393 18.1482C17.8623 18.1482 18.6913 18.9782 18.6913 20.0002Z" stroke="#FF6E00" stroke-width="1.5" stroke-linecap="round" stroke-linejoin="round"/>
<path d="M18.6914 20.0002H25.0094V21.8522" stroke="#FF6E00" stroke-width="1.5" stroke-linecap="round" stroke-linejoin="round"/>
<path d="M22.1816 21.8518V19.9998" stroke="#FF6E00" stroke-width="1.5" stroke-linecap="round" stroke-linejoin="round"/>
</g>
<defs>
<clipPath id="clip0_53809_25958">
<rect width="40" height="40" rx="20" fill="white"/>
</clipPath>
</defs>
</svg>
