<svg width="146" height="146" viewBox="0 0 146 146" fill="none" xmlns="http://www.w3.org/2000/svg">
<path d="M73 0L89.6076 11.0194L109.5 9.78014L118.373 27.6271L136.22 36.5L134.981 56.3924L146 73L134.981 89.6076L136.22 109.5L118.373 118.373L109.5 136.22L89.6076 134.981L73 146L56.3924 134.981L36.5 136.22L27.6271 118.373L9.78014 109.5L11.0194 89.6076L0 73L11.0194 56.3924L9.78014 36.5L27.6271 27.6271L36.5 9.78014L56.3924 11.0194L73 0Z" fill="#FF6E00"/>
<path opacity="0.2" d="M87.0072 19.4941L87.2871 19.6798L87.6223 19.6589L104.4 18.6137L111.884 33.6662L112.033 33.9669L112.334 34.1164L127.386 41.6001L126.341 58.3777L126.32 58.7129L126.506 58.9928L135.8 73L126.506 87.0072L126.32 87.2871L126.341 87.6223L127.386 104.4L112.334 111.884L112.033 112.033L111.884 112.334L104.4 127.386L87.6223 126.341L87.2871 126.32L87.0072 126.506L73 135.8L58.9928 126.506L58.7129 126.32L58.3777 126.341L41.6001 127.386L34.1164 112.334L33.9669 112.033L33.6662 111.884L18.6137 104.4L19.6589 87.6223L19.6798 87.2871L19.4941 87.0072L10.2001 73L19.4941 58.9928L19.6798 58.7129L19.6589 58.3777L18.6137 41.6001L33.6662 34.1164L33.9669 33.9669L34.1164 33.6662L41.6001 18.6137L58.3777 19.6589L58.7129 19.6798L58.9928 19.4941L73 10.2001L87.0072 19.4941Z" stroke="white" stroke-width="2"/>
<path opacity="0.1" d="M88.4212 14.8323L88.5611 14.9251L88.7287 14.9147L107.2 13.7639L115.439 30.3359L115.514 30.4862L115.664 30.561L132.236 38.8L131.085 57.2713L131.075 57.4389L131.168 57.5788L141.4 73L131.168 88.4212L131.075 88.5611L131.085 88.7287L132.236 107.2L115.664 115.439L115.514 115.514L115.439 115.664L107.2 132.236L88.7287 131.085L88.5611 131.075L88.4212 131.168L73 141.4L57.5788 131.168L57.4389 131.075L57.2713 131.085L38.8 132.236L30.561 115.664L30.4862 115.514L30.3359 115.439L13.7639 107.2L14.9147 88.7287L14.9251 88.5611L14.8323 88.4212L4.60005 73L14.8323 57.5788L14.9251 57.4389L14.9147 57.2713L13.7639 38.8L30.3359 30.561L30.4862 30.4862L30.561 30.3359L38.8 13.7639L57.2713 14.9147L57.4389 14.9251L57.5788 14.8323L73 4.60005L88.4212 14.8323Z" stroke="white"/>
</svg>
