<svg width="1920" height="1027" viewBox="0 0 1920 1027" fill="none" xmlns="http://www.w3.org/2000/svg">
<g clip-path="url(#clip0_53455_71502)">
<path d="M131.585 548.12C44.6551 585.523 -18.5883 612.666 -22.6024 614.261C-29.6742 616.752 -37.1165 618.028 -44.6141 618.036C-57.3204 618.04 -69.7485 614.314 -80.3566 607.32C-90.9647 600.326 -99.2861 590.371 -104.288 578.69C-109.291 567.01 -110.753 554.118 -108.496 541.614C-106.238 529.11 -100.359 517.544 -91.5879 508.35L-90.498 507.021C-81.2734 495.218 -25.6064 465.683 187.119 392.444C215.829 382.528 218.674 381.438 221.252 380.056C234.125 372.781 244.228 361.45 249.985 347.83C255.742 334.211 256.83 319.069 253.078 304.766C249.326 290.464 240.947 277.805 229.246 268.765C217.545 259.725 203.181 254.812 188.395 254.792C178.559 254.792 -312.953 355.545 -469.001 387.552" stroke="#B2B4B3" stroke-width="0.69" stroke-miterlimit="10"/>
<path d="M511.205 384.734C406.57 429.768 299.889 476.21 191.24 522.971" stroke="#B2B4B3" stroke-width="0.69" stroke-miterlimit="10"/>
<path d="M1920.16 768.182C1824.16 762.866 648.006 684.602 640.722 684.15C599.809 679.764 574.395 654.908 574.395 619.206C574.36 610.352 576.153 601.587 579.662 593.459C583.17 585.33 588.319 578.013 594.785 571.966C606.482 560.854 742.618 449.148 794.377 406.773C807.058 396.971 815.803 382.946 819.023 367.245C822.243 351.544 819.725 335.208 811.926 321.206C804.127 307.204 791.564 296.463 776.52 290.935C761.476 285.407 744.948 285.458 729.938 291.079C727.279 292.063 758.755 278.558 581.626 354.748" stroke="#B2B4B3" stroke-width="0.69" stroke-miterlimit="10"/>
<path d="M145.036 580.579C48.3236 622.156 -8.0345 646.321 -10.6929 647.278C-31.831 654.882 -54.9135 655.147 -76.2209 648.032C-97.5283 640.917 -115.82 626.835 -128.148 608.056C-140.476 589.277 -146.122 566.894 -144.178 544.515C-142.233 522.135 -132.81 501.062 -117.428 484.69C-97.3566 460.419 -12.0487 423.973 175.714 359.241C189.006 354.748 201.447 350.415 204.717 349.139C210.706 345.559 215.356 340.114 217.955 333.639C220.553 327.164 220.958 320.016 219.105 313.289C217.253 306.562 213.247 300.628 207.7 296.396C202.153 292.163 195.372 289.866 188.395 289.856C177.176 290.627 -339.617 396.777 -469.001 423.308" stroke="#B2B4B3" stroke-width="0.69" stroke-miterlimit="10"/>
<path d="M204.718 555.377C295.104 516.458 385.489 477.194 525.693 416.901" stroke="#B2B4B3" stroke-width="0.69" stroke-miterlimit="10"/>
<path d="M1916.65 803.113C1818.13 797.584 639.764 719.24 638.169 719.161L637.398 719.161C578.727 713.02 539.25 672.851 539.25 619.258C539.284 605.632 542.084 592.155 547.48 579.644C552.877 567.132 560.758 555.846 570.646 546.471C585.666 532.275 764.709 385.718 772.339 379.524L772.791 379.098C778.846 374.444 783.03 367.771 784.584 360.294C786.137 352.816 784.956 345.029 781.255 338.348C777.554 331.667 771.579 326.536 764.416 323.886C757.252 321.237 749.376 321.245 742.219 323.91C737.487 325.824 725.524 331.3 594.385 387.712" stroke="#B2B4B3" stroke-width="0.69" stroke-miterlimit="10"/>
<path d="M427.465 311.895L406.623 311.895" stroke="#B2B4B3" stroke-width="0.69" stroke-miterlimit="10"/>
<path d="M417.043 301.474L417.043 322.315" stroke="#B2B4B3" stroke-width="0.69" stroke-miterlimit="10"/>
<path d="M386.951 311.895L366.109 311.895" stroke="#B2B4B3" stroke-width="0.69" stroke-miterlimit="10"/>
<path d="M376.531 301.474L376.531 322.315" stroke="#B2B4B3" stroke-width="0.69" stroke-miterlimit="10"/>
<path d="M344.07 311.895L323.228 311.895" stroke="#B2B4B3" stroke-width="0.69" stroke-miterlimit="10"/>
<path d="M333.65 301.474L333.65 322.315" stroke="#B2B4B3" stroke-width="0.69" stroke-miterlimit="10"/>
<path d="M646.172 52.5146L625.33 52.5146" stroke="#B2B4B3" stroke-width="0.69" stroke-miterlimit="10"/>
<path d="M635.75 42.0938L635.75 62.9356" stroke="#B2B4B3" stroke-width="0.69" stroke-miterlimit="10"/>
<path d="M667.891 21.0921L647.022 0.223632" stroke="#B2B4B3" stroke-width="0.69" stroke-miterlimit="10"/>
<path d="M667.891 0.223633L647.022 21.0921" stroke="#B2B4B3" stroke-width="0.69" stroke-miterlimit="10"/>
<path d="M553.473 198.354L553.473 73.3026L616.105 10.6973L636.309 10.6973" stroke="#B2B4B3" stroke-width="0.69" stroke-miterlimit="10"/>
<path d="M636.309 0.223633L636.309 21.0921" stroke="#B2B4B3" stroke-width="0.69" stroke-miterlimit="10"/>
<path d="M562.777 260.986L562.777 198.354L541.936 198.354L541.936 260.986L562.777 260.986Z" stroke="#B2B4B3" stroke-width="0.69" stroke-miterlimit="10"/>
<path d="M552.355 260.986L552.355 342.838" stroke="#B2B4B3" stroke-width="0.69" stroke-miterlimit="10"/>
<path d="M594.519 385.054C594.519 393.304 592.073 401.368 587.49 408.227C582.907 415.086 576.393 420.432 568.771 423.589C561.149 426.746 552.763 427.572 544.672 425.963C536.581 424.353 529.149 420.381 523.316 414.548C517.482 408.714 513.51 401.282 511.9 393.191C510.291 385.1 511.117 376.714 514.274 369.092C517.431 361.471 522.777 354.956 529.636 350.373C536.495 345.79 544.56 343.344 552.809 343.344C558.289 343.337 563.716 344.411 568.779 346.505C573.843 348.598 578.444 351.67 582.318 355.545C586.193 359.419 589.265 364.02 591.359 369.084C593.452 374.148 594.526 379.575 594.519 385.054Z" stroke="#B2B4B3" stroke-width="0.69" stroke-miterlimit="10"/>
<path d="M588.006 385.053C588.011 392.017 585.951 398.826 582.085 404.618C578.22 410.41 572.723 414.926 566.29 417.593C559.858 420.26 552.779 420.959 545.948 419.602C539.118 418.245 532.844 414.892 527.92 409.968C522.996 405.044 519.644 398.77 518.286 391.94C516.929 385.11 517.628 378.031 520.296 371.598C522.963 365.166 527.478 359.669 533.271 355.804C539.063 351.938 545.872 349.878 552.835 349.883C562.163 349.883 571.109 353.588 577.705 360.184C584.3 366.78 588.006 375.726 588.006 385.053Z" stroke="#B2B4B3" stroke-width="0.69" stroke-miterlimit="10"/>
<path d="M537.018 398.771C538.97 401.05 541.391 402.88 544.117 404.134C546.843 405.389 549.808 406.038 552.809 406.038C555.809 406.038 558.774 405.389 561.5 404.134C564.226 402.88 566.648 401.05 568.6 398.771" stroke="#B2B4B3" stroke-width="0.69" stroke-miterlimit="10"/>
<path d="M556.743 364.717C561.506 365.622 565.802 368.163 568.89 371.901C571.977 375.639 573.661 380.338 573.65 385.186C573.657 387.608 573.234 390.011 572.401 392.284" stroke="#B2B4B3" stroke-width="0.69" stroke-miterlimit="10"/>
<path d="M533.242 392.284C532.409 390.011 531.986 387.608 531.993 385.186C531.982 380.338 533.666 375.639 536.753 371.901C539.841 368.163 544.138 365.622 548.9 364.717" stroke="#B2B4B3" stroke-width="0.69" stroke-miterlimit="10"/>
<path d="M563.256 385.054C563.261 387.121 562.653 389.144 561.508 390.865C560.363 392.587 558.733 393.93 556.825 394.725C554.916 395.52 552.815 395.73 550.787 395.33C548.758 394.93 546.894 393.937 545.43 392.477C543.967 391.017 542.969 389.156 542.564 387.128C542.158 385.101 542.364 382.999 543.154 381.088C543.944 379.178 545.283 377.545 547.001 376.395C548.72 375.246 550.741 374.633 552.808 374.633C554.179 374.629 555.537 374.896 556.804 375.418C558.072 375.941 559.224 376.708 560.194 377.676C561.165 378.644 561.935 379.794 562.46 381.06C562.985 382.326 563.256 383.683 563.256 385.054Z" stroke="#B2B4B3" stroke-width="0.69" stroke-miterlimit="10"/>
<path d="M558.02 361.314C558.02 362.365 557.708 363.393 557.124 364.268C556.539 365.142 555.709 365.824 554.737 366.226C553.766 366.628 552.697 366.734 551.666 366.528C550.634 366.323 549.687 365.817 548.943 365.073C548.2 364.33 547.693 363.382 547.488 362.351C547.283 361.32 547.388 360.251 547.791 359.279C548.193 358.308 548.875 357.477 549.749 356.893C550.623 356.309 551.651 355.997 552.703 355.997C554.113 355.997 555.465 356.557 556.462 357.554C557.459 358.551 558.02 359.904 558.02 361.314Z" stroke="#B2B4B3" stroke-width="0.69" stroke-miterlimit="10"/>
<path d="M576.228 392.816C577.157 393.328 577.91 394.106 578.393 395.05C578.876 395.993 579.066 397.06 578.938 398.112C578.81 399.165 578.37 400.155 577.676 400.955C576.981 401.756 576.063 402.331 575.039 402.606C574.015 402.881 572.933 402.844 571.93 402.499C570.928 402.154 570.052 401.518 569.414 400.671C568.776 399.824 568.405 398.806 568.35 397.748C568.295 396.689 568.558 395.638 569.104 394.73C569.813 393.551 570.952 392.693 572.28 392.336C573.609 391.979 575.024 392.151 576.228 392.816Z" stroke="#B2B4B3" stroke-width="0.69" stroke-miterlimit="10"/>
<path d="M529.413 392.816C530.321 392.269 531.372 392.007 532.431 392.062C533.489 392.117 534.507 392.487 535.354 393.125C536.2 393.763 536.837 394.64 537.182 395.642C537.526 396.645 537.564 397.727 537.289 398.751C537.014 399.775 536.439 400.693 535.638 401.388C534.837 402.082 533.847 402.522 532.795 402.649C531.743 402.777 530.676 402.588 529.733 402.105C528.789 401.622 528.011 400.868 527.499 399.94C526.834 398.736 526.662 397.321 527.019 395.992C527.376 394.663 528.234 393.525 529.413 392.816Z" stroke="#B2B4B3" stroke-width="0.69" stroke-miterlimit="10"/>
<path d="M590.984 735.165L605.738 720.437L620.492 735.165" stroke="#B2B4B3" stroke-width="0.69" stroke-miterlimit="10"/>
<path d="M689.105 927.58L689.105 865.746L605.685 782.352L605.685 720.437" stroke="#B2B4B3" stroke-width="0.69" stroke-miterlimit="10"/>
<path d="M564.133 907.429L543.291 886.587" stroke="#B2B4B3" stroke-width="0.69" stroke-miterlimit="10"/>
<path d="M543.291 907.429L564.133 886.587" stroke="#B2B4B3" stroke-width="0.69" stroke-miterlimit="10"/>
<path d="M616.371 793.012L553.739 855.67L553.739 875.874" stroke="#B2B4B3" stroke-width="0.69" stroke-miterlimit="10"/>
<path d="M543.291 875.874L564.133 875.874" stroke="#B2B4B3" stroke-width="0.69" stroke-miterlimit="10"/>
<path d="M658.295 949.087C656.273 953.593 655.231 958.477 655.238 963.416L664.622 963.416C664.611 968.523 666.116 973.519 668.946 977.771C671.776 982.023 675.804 985.34 680.52 987.302C685.236 989.263 690.428 989.782 695.438 988.792C700.449 987.802 705.053 985.348 708.669 981.74C712.284 978.132 714.748 973.533 715.748 968.524C716.748 963.515 716.24 958.323 714.288 953.603C712.336 948.883 709.028 944.848 704.782 942.01C700.535 939.171 695.543 937.656 690.435 937.656L690.435 928.271C684.874 928.272 679.392 929.589 674.438 932.117C669.485 934.645 665.201 938.31 661.937 942.813" stroke="#B2B4B3" stroke-width="0.69" stroke-miterlimit="10"/>
<path d="M680.014 963.441C680.014 961.38 680.625 959.366 681.77 957.652C682.915 955.938 684.542 954.603 686.447 953.814C688.351 953.025 690.446 952.819 692.468 953.221C694.489 953.623 696.346 954.615 697.803 956.073C699.261 957.53 700.253 959.387 700.655 961.408C701.057 963.43 700.851 965.525 700.062 967.429C699.273 969.334 697.938 970.961 696.224 972.106C694.51 973.251 692.496 973.862 690.435 973.862C689.065 973.866 687.708 973.599 686.443 973.076C685.177 972.554 684.026 971.786 683.058 970.818C682.09 969.85 681.322 968.699 680.8 967.434C680.277 966.168 680.01 964.811 680.014 963.441Z" stroke="#B2B4B3" stroke-width="0.69" stroke-miterlimit="10"/>
<path d="M685.224 963.442C685.224 962.39 685.536 961.362 686.12 960.488C686.704 959.614 687.534 958.932 688.506 958.53C689.478 958.127 690.547 958.022 691.578 958.227C692.609 958.432 693.557 958.939 694.3 959.682C695.044 960.426 695.55 961.373 695.755 962.405C695.96 963.436 695.855 964.505 695.453 965.476C695.05 966.448 694.369 967.278 693.494 967.863C692.62 968.447 691.592 968.759 690.541 968.759C689.13 968.759 687.778 968.198 686.781 967.201C685.784 966.204 685.224 964.852 685.224 963.442Z" stroke="#B2B4B3" stroke-width="0.69" stroke-miterlimit="10"/>
<path d="M686.526 997.097C686.526 996.324 686.755 995.569 687.185 994.926C687.614 994.284 688.224 993.783 688.938 993.487C689.653 993.191 690.438 993.114 691.196 993.265C691.954 993.415 692.651 993.788 693.197 994.334C693.744 994.881 694.116 995.577 694.267 996.335C694.417 997.093 694.34 997.879 694.044 998.593C693.749 999.307 693.248 999.917 692.605 1000.35C691.962 1000.78 691.207 1001.01 690.434 1001.01C689.398 1001.01 688.404 1000.59 687.671 999.861C686.938 999.128 686.526 998.134 686.526 997.097Z" stroke="#B2B4B3" stroke-width="0.69" stroke-miterlimit="10"/>
<path d="M686.526 945.471C686.531 944.699 686.765 943.946 687.198 943.307C687.63 942.668 688.242 942.171 688.957 941.88C689.671 941.588 690.456 941.514 691.213 941.668C691.969 941.822 692.663 942.196 693.207 942.744C693.75 943.291 694.12 943.988 694.269 944.745C694.417 945.502 694.338 946.287 694.042 946.999C693.745 947.712 693.244 948.32 692.602 948.749C691.96 949.177 691.206 949.406 690.434 949.406C689.919 949.406 689.408 949.304 688.932 949.106C688.456 948.907 688.025 948.617 687.661 948.252C687.298 947.886 687.011 947.452 686.816 946.975C686.621 946.498 686.523 945.987 686.526 945.471Z" stroke="#B2B4B3" stroke-width="0.69" stroke-miterlimit="10"/>
<path d="M703.938 975.777C703.051 975.255 702.404 974.406 702.135 973.412C701.867 972.418 701.999 971.358 702.503 970.46C702.759 970.015 703.101 969.625 703.509 969.312C703.916 968.999 704.381 968.769 704.877 968.636C705.373 968.503 705.891 968.468 706.4 968.535C706.91 968.602 707.401 968.768 707.846 969.025C708.291 969.281 708.682 969.623 708.995 970.031C709.308 970.438 709.537 970.903 709.671 971.399C709.804 971.895 709.838 972.413 709.772 972.922C709.705 973.432 709.538 973.923 709.282 974.368C708.755 975.258 707.899 975.905 706.899 976.169C705.899 976.432 704.836 976.292 703.938 975.777Z" stroke="#B2B4B3" stroke-width="0.69" stroke-miterlimit="10"/>
<path d="M659.332 950.016C658.66 949.633 658.116 949.059 657.771 948.366C657.425 947.673 657.293 946.894 657.392 946.126C657.49 945.358 657.814 944.637 658.323 944.053C658.831 943.47 659.502 943.051 660.249 942.849C660.997 942.647 661.787 942.672 662.52 942.92C663.253 943.168 663.897 943.628 664.368 944.242C664.839 944.856 665.118 945.596 665.168 946.369C665.218 947.141 665.037 947.911 664.649 948.581C664.132 949.474 663.283 950.126 662.287 950.394C661.291 950.663 660.229 950.527 659.332 950.016Z" stroke="#B2B4B3" stroke-width="0.69" stroke-miterlimit="10"/>
<path d="M721.51 950.017C720.841 950.405 720.071 950.585 719.298 950.535C718.526 950.485 717.786 950.207 717.172 949.735C716.558 949.264 716.097 948.621 715.849 947.888C715.601 947.154 715.577 946.364 715.778 945.617C715.98 944.869 716.399 944.199 716.983 943.69C717.566 943.181 718.287 942.857 719.055 942.759C719.823 942.661 720.603 942.793 721.295 943.138C721.988 943.484 722.563 944.027 722.946 944.7C723.457 945.596 723.593 946.658 723.324 947.654C723.055 948.65 722.403 949.499 721.51 950.017Z" stroke="#B2B4B3" stroke-width="0.69" stroke-miterlimit="10"/>
<path d="M676.823 975.803C676.153 976.191 675.383 976.371 674.611 976.321C673.838 976.271 673.098 975.993 672.484 975.521C671.87 975.05 671.41 974.407 671.162 973.674C670.914 972.941 670.889 972.15 671.091 971.403C671.293 970.656 671.712 969.985 672.295 969.476C672.879 968.968 673.6 968.643 674.368 968.545C675.136 968.447 675.915 968.579 676.608 968.925C677.301 969.27 677.875 969.813 678.258 970.486C678.515 970.929 678.681 971.418 678.748 971.926C678.815 972.433 678.781 972.949 678.647 973.443C678.514 973.937 678.284 974.4 677.971 974.805C677.658 975.21 677.268 975.549 676.823 975.803Z" stroke="#B2B4B3" stroke-width="0.69" stroke-miterlimit="10"/>
</g>
<defs>
<clipPath id="clip0_53455_71502">
<rect width="2389" height="1027" fill="white" transform="translate(-469)"/>
</clipPath>
</defs>
</svg>
