<svg width="40" height="40" viewBox="0 0 40 40" fill="none" xmlns="http://www.w3.org/2000/svg">
<g clip-path="url(#clip0_53824_32298)">
<path d="M23.5 14V24.5C23.5 26.71 21.71 28.5 19.5 28.5C17.29 28.5 15.5 26.71 15.5 24.5V14C15.5 12.62 16.62 11.5 18 11.5C19.38 11.5 20.5 12.62 20.5 14V23.5C20.5 24.05 20.05 24.5 19.5 24.5C18.95 24.5 18.5 24.05 18.5 23.5V14H17V23.5C17 24.88 18.12 26 19.5 26C20.88 26 22 24.88 22 23.5V14C22 11.79 20.21 10 18 10C15.79 10 14 11.79 14 14V24.5C14 27.54 16.46 30 19.5 30C22.54 30 25 27.54 25 24.5V14H23.5Z" fill="#FF6E00"/>
</g>
<defs>
<clipPath id="clip0_53824_32298">
<rect width="40" height="40" rx="20" fill="white"/>
</clipPath>
</defs>
</svg>
