<svg width="352" height="122" viewBox="0 0 352 122" fill="none" xmlns="http://www.w3.org/2000/svg">
<path d="M351 59.125H351.75V59.4357L351.53 59.6553L351 59.125ZM351 23.5L351.53 22.9697L351.75 23.1893V23.5H351ZM1 23.5H0.25V23.1893L0.46967 22.9697L1 23.5ZM1 75.25L0.46967 75.7803L0.25 75.5607V75.25H1ZM324.375 85.75H323.625V85.4393L323.845 85.2197L324.375 85.75ZM324.905 121.53C324.612 121.823 324.138 121.823 323.845 121.53L319.072 116.757C318.779 116.464 318.779 115.99 319.072 115.697C319.365 115.404 319.839 115.404 320.132 115.697L324.375 119.939L328.618 115.697C328.911 115.404 329.385 115.404 329.678 115.697C329.971 115.99 329.971 116.464 329.678 116.757L324.905 121.53ZM23.5 1L22.9697 0.469673L23.1893 0.25H23.5V1ZM23.5 97.75V98.5H23.1893L22.9697 98.2803L23.5 97.75ZM328.5 1V0.25H328.811L329.03 0.469673L328.5 1ZM209 97.75V97H209.311L209.53 97.2197L209 97.75ZM350.25 59.125V23.5H351.75V59.125H350.25ZM1.75 23.5V75.25H0.25V23.5H1.75ZM351.53 59.6553L324.905 86.2803L323.845 85.2197L350.47 58.5947L351.53 59.6553ZM325.125 85.75V121H323.625V85.75H325.125ZM24.0303 1.53033L1.53033 24.0303L0.46967 22.9697L22.9697 0.469673L24.0303 1.53033ZM1.53033 74.7197L24.0303 97.2197L22.9697 98.2803L0.46967 75.7803L1.53033 74.7197ZM350.47 24.0303L327.97 1.53033L329.03 0.469673L351.53 22.9697L350.47 24.0303ZM328.5 1.75H23.5V0.25H328.5V1.75ZM23.5 97H209V98.5H23.5V97ZM209.53 97.2197L232.78 120.47L231.72 121.53L208.47 98.2803L209.53 97.2197Z" fill="#D6D7D8"/>
</svg>
