<svg width="1920" height="1257" viewBox="0 0 1920 1257" fill="none" xmlns="http://www.w3.org/2000/svg">
<path d="M927.5 410L2.5 212.5V763.5H1922.5V114C1682.67 129.5 1200 162 1182 163.5C1163.4 165.05 1137.02 178.746 1130.5 206C1125 229 1134 251 1147.5 263C1189 298 1260 356 1265 360.5C1272 366.8 1272.5 377 1267 384.5C1261.5 392 1249.54 392.129 1244.5 390C1099 328.5 838 214.5 811.5 204C774.355 192.297 745.394 215.201 738 244C731.542 269.15 741.928 298.913 772.5 312.5C834.5 343 927.5 372 937 376C945.5 379.579 948.613 392.892 943 401C938.5 407.5 932 410.5 927.5 410Z" fill="#FF6E00"/>
<path d="M385 847.501L1922.5 1173.5V494.001L-607.5 494.001L-658 926.501C-435.5 982 112.5 1095.5 130.5 1094C149.104 1092.45 175.483 1078.75 182 1051.5C187.5 1028.5 178.5 1006.5 165 994.501C123.5 959.501 52.5 901.501 47.5 897.001C40.5 890.701 40 880.501 45.5 873.001C51 865.501 62.9622 865.372 68 867.501C213.5 929.001 474.5 1043 501 1053.5C538.145 1065.2 567.105 1042.3 574.5 1013.5C580.958 988.351 570.572 958.588 540 945.001C478 914.501 385 885.501 375.5 881.501C367 877.922 363.887 864.609 369.5 856.501C374 850.001 380.5 847.001 385 847.501Z" fill="#FF6E00"/>
<path d="M894.758 261.175C844.809 239.68 808.47 224.087 806.19 223.175C800.552 221.162 794.513 220.532 788.581 221.34C782.649 222.147 776.997 224.368 772.102 227.815C767.207 231.262 763.211 235.834 760.451 241.148C757.69 246.461 756.247 252.36 756.241 258.348C756.222 267.94 759.919 277.166 766.556 284.089L767.194 284.845C772.495 291.632 804.484 308.606 926.708 350.696C943.197 356.402 944.825 357.014 946.31 357.809C953.717 361.987 959.532 368.502 962.845 376.335C966.158 384.168 966.783 392.879 964.622 401.105C962.461 409.331 957.637 416.609 950.902 421.803C944.167 426.996 935.902 429.811 927.398 429.809C922.986 429.788 414.156 320.296 150 263.828M2.5 232.515C17.5708 235.611 53.5463 243.24 103 253.79" stroke="white" stroke-width="0.81" stroke-miterlimit="10"/>
<path d="M1112.88 355.098C1052.76 329.213 991.467 302.534 929.053 275.633" stroke="white" stroke-width="0.81" stroke-miterlimit="10"/>
<path d="M1923 134.5C1867.85 137.587 1191.45 182.765 1187.27 183.039C1163.76 185.553 1149.14 199.869 1149.14 220.361C1149.13 225.449 1150.16 230.487 1152.17 235.158C1154.19 239.83 1157.15 244.034 1160.87 247.509C1167.59 253.892 1245.81 318.076 1275.48 342.436C1282.75 348.074 1287.75 356.128 1289.59 365.139C1291.43 374.151 1289.98 383.522 1285.51 391.556C1281.03 399.589 1273.82 405.753 1265.19 408.931C1256.57 412.108 1247.08 412.088 1238.47 408.874C1236.88 408.301 1214.28 398.784 1112.5 355" stroke="white" stroke-width="0.81" stroke-miterlimit="10"/>
<path d="M902.482 242.559C846.919 218.668 814.539 204.781 813.015 204.234C800.871 199.859 787.608 199.701 775.363 203.787C763.118 207.872 752.606 215.963 745.521 226.754C738.435 237.546 735.19 250.409 736.308 263.271C737.426 276.133 742.841 288.243 751.682 297.65C763.222 311.602 812.234 332.563 920.105 369.755C927.711 372.36 934.901 374.822 936.776 375.565C940.222 377.617 942.899 380.744 944.396 384.466C945.892 388.188 946.126 392.298 945.061 396.165C943.996 400.032 941.691 403.443 938.5 405.873C935.309 408.304 931.409 409.619 927.398 409.617C920.886 409.174 76.8842 227.24 2.5 211.985" stroke="white" stroke-width="0.81" stroke-miterlimit="10"/>
<path d="M936.775 257.045C988.783 279.412 1040.62 301.962 1121.22 336.613" stroke="white" stroke-width="0.81" stroke-miterlimit="10"/>
<path d="M1922.5 114C1865.89 117.166 1186.73 162.873 1185.78 162.873H1185.34C1151.66 166.469 1129.03 189.526 1129.03 220.361C1129.05 228.19 1130.66 235.934 1133.76 243.122C1136.86 250.31 1141.39 256.793 1147.07 262.178C1155.69 270.346 1258.58 354.565 1262.99 358.121L1263.27 358.356C1266.35 360.658 1268.63 363.877 1269.77 367.552C1270.92 371.227 1270.87 375.17 1269.63 378.816C1268.4 382.463 1266.05 385.625 1262.91 387.852C1259.77 390.078 1256 391.253 1252.16 391.21C1249.93 391.226 1247.73 390.842 1245.64 390.076C1242.92 388.956 1236.04 385.817 1160.7 353.379" stroke="white" stroke-width="0.81" stroke-miterlimit="10"/>
<path d="M1064.76 396.953H1052.77" stroke="white" stroke-width="0.81" stroke-miterlimit="10"/>
<path d="M1058.77 402.945V390.974" stroke="white" stroke-width="0.81" stroke-miterlimit="10"/>
<path d="M1041.48 396.953H1029.51" stroke="white" stroke-width="0.81" stroke-miterlimit="10"/>
<path d="M1035.49 402.945V390.974" stroke="white" stroke-width="0.81" stroke-miterlimit="10"/>
<path d="M1016.84 396.953H1004.86" stroke="white" stroke-width="0.81" stroke-miterlimit="10"/>
<path d="M1010.85 402.945V390.961" stroke="white" stroke-width="0.81" stroke-miterlimit="10"/>
<path d="M180.074 450.127H168.117" stroke="white" stroke-width="0.81" stroke-miterlimit="10"/>
<path d="M174.096 456.105V444.134" stroke="white" stroke-width="0.81" stroke-miterlimit="10"/>
<path d="M192.552 468.183L180.582 480.154" stroke="white" stroke-width="0.81" stroke-miterlimit="10"/>
<path d="M192.552 480.154L180.582 468.183" stroke="white" stroke-width="0.81" stroke-miterlimit="10"/>
<path d="M126.83 366.298V438.168L162.804 474.148H174.422" stroke="white" stroke-width="0.81" stroke-miterlimit="10"/>
<path d="M174.422 480.154V468.183" stroke="white" stroke-width="0.81" stroke-miterlimit="10"/>
<path d="M132.17 366.312H120.188V330.319H132.17V366.312Z" stroke="white" stroke-width="0.81" stroke-miterlimit="10"/>
<path d="M126.178 330.318V283.278" stroke="white" stroke-width="0.81" stroke-miterlimit="10"/>
<path d="M150.405 258.957C150.405 254.216 148.998 249.582 146.364 245.641C143.729 241.7 139.984 238.63 135.604 236.818C131.223 235.007 126.404 234.536 121.756 235.466C117.107 236.396 112.84 238.684 109.492 242.041C106.145 245.398 103.869 249.672 102.952 254.324C102.035 258.975 102.519 263.794 104.342 268.17C106.165 272.547 109.245 276.284 113.193 278.908C117.14 281.533 121.777 282.927 126.518 282.914C132.859 282.897 138.935 280.365 143.412 275.874C147.89 271.383 150.405 265.3 150.405 258.957Z" stroke="white" stroke-width="0.81" stroke-miterlimit="10"/>
<path d="M146.667 258.956C146.667 254.954 145.48 251.043 143.256 247.717C141.032 244.391 137.871 241.799 134.173 240.271C130.476 238.743 126.408 238.346 122.485 239.131C118.562 239.917 114.96 241.849 112.136 244.683C109.311 247.517 107.391 251.126 106.619 255.052C105.846 258.978 106.256 263.045 107.796 266.738C109.336 270.431 111.937 273.584 115.27 275.798C118.602 278.012 122.517 279.187 126.518 279.174C131.868 279.156 136.993 277.019 140.769 273.229C144.546 269.439 146.667 264.307 146.667 258.956Z" stroke="white" stroke-width="0.81" stroke-miterlimit="10"/>
<path d="M117.4 251.127C118.523 249.819 119.915 248.77 121.48 248.05C123.046 247.331 124.749 246.958 126.472 246.958C128.195 246.958 129.898 247.331 131.464 248.05C133.03 248.77 134.421 249.819 135.544 251.127" stroke="white" stroke-width="0.81" stroke-miterlimit="10"/>
<path d="M128.705 270.693C131.438 270.18 133.905 268.727 135.679 266.585C137.454 264.444 138.424 261.75 138.422 258.969C138.427 257.574 138.184 256.189 137.705 254.879" stroke="white" stroke-width="0.81" stroke-miterlimit="10"/>
<path d="M115.199 254.865C114.72 256.175 114.477 257.56 114.483 258.955C114.48 261.736 115.45 264.431 117.225 266.572C118.999 268.713 121.466 270.166 124.199 270.68" stroke="white" stroke-width="0.81" stroke-miterlimit="10"/>
<path d="M132.444 258.957C132.444 257.772 132.092 256.613 131.434 255.628C130.776 254.642 129.84 253.874 128.745 253.421C127.65 252.967 126.446 252.848 125.283 253.08C124.121 253.311 123.054 253.881 122.216 254.72C121.378 255.558 120.807 256.625 120.576 257.788C120.345 258.95 120.463 260.155 120.917 261.25C121.37 262.345 122.138 263.281 123.124 263.939C124.109 264.598 125.267 264.949 126.452 264.949C128.041 264.949 129.565 264.318 130.689 263.194C131.812 262.07 132.444 260.546 132.444 258.957Z" stroke="white" stroke-width="0.81" stroke-miterlimit="10"/>
<path d="M129.448 272.66C129.448 272.067 129.273 271.488 128.944 270.995C128.614 270.503 128.147 270.119 127.599 269.892C127.052 269.665 126.449 269.606 125.868 269.721C125.287 269.837 124.753 270.122 124.334 270.541C123.915 270.96 123.63 271.494 123.515 272.076C123.399 272.657 123.458 273.259 123.685 273.807C123.912 274.354 124.296 274.822 124.788 275.151C125.281 275.481 125.86 275.656 126.453 275.656C127.247 275.656 128.009 275.341 128.571 274.779C129.133 274.217 129.448 273.455 129.448 272.66Z" stroke="white" stroke-width="0.81" stroke-miterlimit="10"/>
<path d="M139.907 254.553C140.418 254.255 140.83 253.813 141.091 253.281C141.351 252.749 141.448 252.152 141.369 251.566C141.29 250.979 141.04 250.429 140.649 249.984C140.258 249.54 139.744 249.221 139.172 249.069C138.6 248.916 137.996 248.936 137.435 249.127C136.875 249.318 136.383 249.67 136.023 250.14C135.663 250.61 135.45 251.175 135.411 251.766C135.372 252.357 135.509 252.946 135.804 253.459C136.204 254.147 136.861 254.648 137.629 254.853C138.398 255.059 139.217 254.951 139.907 254.553Z" stroke="white" stroke-width="0.81" stroke-miterlimit="10"/>
<path d="M112.997 254.554C113.51 254.851 114.099 254.989 114.691 254.951C115.282 254.913 115.849 254.7 116.319 254.339C116.79 253.979 117.143 253.487 117.334 252.926C117.525 252.364 117.545 251.759 117.392 251.187C117.238 250.614 116.919 250.1 116.473 249.709C116.028 249.318 115.476 249.068 114.889 248.99C114.301 248.913 113.704 249.012 113.172 249.274C112.641 249.536 112.199 249.95 111.903 250.463C111.506 251.151 111.399 251.968 111.604 252.735C111.809 253.502 112.31 254.156 112.997 254.554Z" stroke="white" stroke-width="0.81" stroke-miterlimit="10"/>
<path d="M1158.72 153.716L1167.18 162.184L1175.66 153.716" stroke="white" stroke-width="0.81" stroke-miterlimit="10"/>
<path d="M1215.09 43.1432V78.6938L1167.16 126.607V162.184" stroke="white" stroke-width="0.81" stroke-miterlimit="10"/>
<path d="M1143.28 54.7222L1131.3 66.707" stroke="white" stroke-width="0.81" stroke-miterlimit="10"/>
<path d="M1131.3 54.7222L1143.28 66.707" stroke="white" stroke-width="0.81" stroke-miterlimit="10"/>
<path d="M1173.29 120.469L1137.3 84.4753V72.8683" stroke="white" stroke-width="0.81" stroke-miterlimit="10"/>
<path d="M1131.3 72.8691H1143.28" stroke="white" stroke-width="0.81" stroke-miterlimit="10"/>
<path d="M1197.37 30.7913C1196.22 28.1959 1195.62 25.3861 1195.63 22.5452H1201.01C1201 19.6095 1201.87 16.7382 1203.5 14.2947C1205.12 11.8512 1207.44 9.94543 1210.15 8.81841C1212.86 7.69138 1215.84 7.39382 1218.72 7.96339C1221.6 8.53296 1224.25 9.94405 1226.32 12.0181C1228.4 14.0921 1229.82 16.7359 1230.39 19.6149C1230.97 22.4938 1230.67 25.4785 1229.55 28.1913C1228.43 30.904 1226.53 33.2229 1224.09 34.8544C1221.65 36.486 1218.78 37.3569 1215.84 37.3569V42.75C1212.65 42.75 1209.5 41.9933 1206.65 40.5419C1203.81 39.0905 1201.35 36.9857 1199.47 34.3998" stroke="white" stroke-width="0.81" stroke-miterlimit="10"/>
<path d="M1209.85 22.5467C1209.85 23.7319 1210.2 24.8904 1210.86 25.8758C1211.52 26.8613 1212.46 27.6294 1213.55 28.0829C1214.64 28.5365 1215.85 28.6551 1217.01 28.4239C1218.17 28.1927 1219.24 27.622 1220.08 26.7839C1220.92 25.9459 1221.49 24.8781 1221.72 23.7157C1221.95 22.5533 1221.83 21.3484 1221.38 20.2535C1220.92 19.1585 1220.16 18.2226 1219.17 17.5642C1218.19 16.9057 1217.03 16.5543 1215.84 16.5543C1214.25 16.5543 1212.73 17.1856 1211.61 18.3094C1210.48 19.4332 1209.85 20.9574 1209.85 22.5467Z" stroke="white" stroke-width="0.81" stroke-miterlimit="10"/>
<path d="M1212.85 22.5468C1212.85 23.1394 1213.02 23.7186 1213.35 24.2114C1213.68 24.7041 1214.15 25.0881 1214.7 25.3149C1215.24 25.5417 1215.85 25.601 1216.43 25.4854C1217.01 25.3698 1217.54 25.0844 1217.96 24.6654C1218.38 24.2464 1218.67 23.7125 1218.78 23.1313C1218.9 22.5501 1218.84 21.9476 1218.61 21.4002C1218.38 20.8527 1218 20.3848 1217.51 20.0555C1217.02 19.7263 1216.44 19.5506 1215.84 19.5506C1215.05 19.5506 1214.29 19.8663 1213.73 20.4281C1213.16 20.99 1212.85 21.7521 1212.85 22.5468Z" stroke="white" stroke-width="0.81" stroke-miterlimit="10"/>
<path d="M1213.6 3.23983C1213.6 3.68298 1213.73 4.11617 1213.98 4.48464C1214.23 4.85311 1214.58 5.14033 1214.99 5.30992C1215.4 5.47951 1215.85 5.52387 1216.28 5.43741C1216.72 5.35096 1217.11 5.13755 1217.43 4.82419C1217.74 4.51083 1217.95 4.11158 1218.04 3.67694C1218.13 3.24229 1218.08 2.79181 1217.91 2.38239C1217.74 1.97297 1217.46 1.62303 1217.09 1.37682C1216.72 1.13062 1216.29 0.99919 1215.84 0.99919C1215.55 0.99919 1215.26 1.05714 1214.99 1.16974C1214.71 1.28234 1214.47 1.44741 1214.26 1.65547C1214.05 1.86353 1213.89 2.11054 1213.77 2.38239C1213.66 2.65424 1213.6 2.94558 1213.6 3.23983Z" stroke="white" stroke-width="0.81" stroke-miterlimit="10"/>
<path d="M1213.6 32.8642C1213.61 33.3068 1213.74 33.7387 1213.99 34.1055C1214.24 34.4722 1214.59 34.7574 1215 34.925C1215.41 35.0926 1215.86 35.1351 1216.29 35.0471C1216.72 34.9592 1217.12 34.7448 1217.43 34.4309C1217.74 34.1171 1217.96 33.7178 1218.04 33.2835C1218.13 32.8492 1218.08 32.3994 1217.91 31.9907C1217.74 31.5821 1217.46 31.2329 1217.09 30.9873C1216.72 30.7416 1216.29 30.6106 1215.84 30.6105C1215.55 30.6105 1215.26 30.6689 1214.98 30.7823C1214.71 30.8957 1214.46 31.062 1214.26 31.2714C1214.05 31.4808 1213.88 31.7294 1213.77 32.0027C1213.66 32.2761 1213.6 32.5688 1213.6 32.8642Z" stroke="white" stroke-width="0.81" stroke-miterlimit="10"/>
<path d="M1223.62 15.4606C1223.24 15.688 1222.94 16.0219 1222.75 16.4204C1222.56 16.8188 1222.5 17.2643 1222.56 17.7008C1222.62 18.1373 1222.81 18.5454 1223.11 18.8742C1223.4 19.2029 1223.78 19.4376 1224.21 19.5487C1224.64 19.6599 1225.09 19.6427 1225.5 19.4992C1225.92 19.3557 1226.29 19.0923 1226.55 18.742C1226.82 18.3918 1226.98 17.9702 1227.01 17.5302C1227.04 17.0901 1226.94 16.6512 1226.72 16.2683C1226.57 16.0092 1226.37 15.7823 1226.14 15.601C1225.9 15.4196 1225.63 15.2874 1225.34 15.2122C1225.05 15.137 1224.75 15.1202 1224.46 15.1628C1224.16 15.2055 1223.88 15.3068 1223.62 15.4606Z" stroke="white" stroke-width="0.81" stroke-miterlimit="10"/>
<path d="M1197.99 30.2585C1197.6 30.4801 1197.29 30.8105 1197.1 31.2079C1196.9 31.6053 1196.83 32.0519 1196.89 32.4912C1196.94 32.9306 1197.13 33.3429 1197.42 33.6761C1197.72 34.0092 1198.1 34.2483 1198.53 34.363C1198.96 34.4778 1199.41 34.463 1199.83 34.3207C1200.25 34.1783 1200.61 33.9148 1200.88 33.5633C1201.15 33.2118 1201.31 32.7882 1201.34 32.346C1201.37 31.9039 1201.27 31.463 1201.05 31.0792C1200.9 30.8229 1200.71 30.5982 1200.47 30.418C1200.24 30.2378 1199.97 30.1057 1199.69 30.0294C1199.4 29.953 1199.11 29.9339 1198.82 29.9733C1198.52 30.0126 1198.24 30.1095 1197.99 30.2585Z" stroke="white" stroke-width="0.81" stroke-miterlimit="10"/>
<path d="M1233.7 30.258C1233.32 30.0365 1232.88 29.9339 1232.43 29.963C1231.99 29.9921 1231.57 30.1517 1231.22 30.4215C1230.87 30.6914 1230.6 31.0593 1230.46 31.479C1230.32 31.8986 1230.3 32.351 1230.42 32.779C1230.53 33.207 1230.77 33.5914 1231.11 33.8835C1231.44 34.1757 1231.85 34.3625 1232.29 34.4203C1232.73 34.4781 1233.18 34.4044 1233.57 34.2084C1233.97 34.0125 1234.3 33.703 1234.52 33.3193C1234.67 33.0649 1234.77 32.7834 1234.81 32.4912C1234.85 32.1991 1234.83 31.902 1234.75 31.6172C1234.67 31.3324 1234.54 31.0657 1234.36 30.8323C1234.18 30.599 1233.96 30.4038 1233.7 30.258Z" stroke="white" stroke-width="0.81" stroke-miterlimit="10"/>
<path d="M1208.03 15.4337C1207.65 15.2123 1207.21 15.1097 1206.76 15.1388C1206.32 15.1679 1205.9 15.3275 1205.55 15.5973C1205.19 15.8671 1204.93 16.2351 1204.79 16.6547C1204.65 17.0744 1204.63 17.5268 1204.75 17.9548C1204.86 18.3828 1205.1 18.7672 1205.43 19.0593C1205.77 19.3514 1206.18 19.5382 1206.62 19.5961C1207.06 19.6539 1207.5 19.5802 1207.9 19.3842C1208.3 19.1882 1208.63 18.8788 1208.85 18.4951C1209 18.2402 1209.09 17.9588 1209.13 17.667C1209.17 17.3752 1209.15 17.0787 1209.07 16.7944C1209 16.5101 1208.87 16.2436 1208.69 16.0102C1208.51 15.7767 1208.28 15.5808 1208.03 15.4337Z" stroke="white" stroke-width="0.81" stroke-miterlimit="10"/>
<path d="M928.917 258.383L923.449 256.098L925.734 250.629L931.202 252.914L928.917 258.383Z" fill="white"/>
<path d="M924.304 269.379L918.838 267.09L921.127 261.623L926.593 263.912L924.304 269.379Z" fill="white"/>
<path d="M919.688 280.437L914.221 278.15L916.507 272.682L921.974 274.968L919.688 280.437Z" fill="white"/>
<path d="M925.766 250.624L920.299 248.336L922.587 242.868L928.054 245.157L925.766 250.624Z" fill="white"/>
<path d="M921.16 261.548L915.693 259.26L917.981 253.792L923.448 256.08L921.16 261.548Z" fill="white"/>
<path d="M916.541 272.636L911.072 270.352L913.356 264.882L918.825 267.167L916.541 272.636Z" fill="white"/>
<path d="M917.847 253.813L912.381 251.523L914.67 246.056L920.136 248.345L917.847 253.813Z" fill="white"/>
<path d="M913.249 264.845L907.781 262.559L910.067 257.09L915.535 259.376L913.249 264.845Z" fill="white"/>
<path d="M908.651 275.815L903.184 273.527L905.471 268.059L910.938 270.347L908.651 275.815Z" fill="white"/>
<path d="M914.716 246.013L909.248 243.727L911.534 238.258L917.002 240.544L914.716 246.013Z" fill="white"/>
<path d="M910.115 257.033L904.648 254.744L906.937 249.277L912.404 251.566L910.115 257.033Z" fill="white"/>
<path d="M905.518 267.99L900.051 265.703L902.338 260.235L907.805 262.522L905.518 267.99Z" fill="white"/>
<path d="M923.334 289.025L889.209 274.696L908.069 229.583L942.194 243.848L923.334 289.025ZM895.617 276.285L897.714 271.283L903.184 273.575L901.101 278.578L906.675 280.91L908.772 275.907L914.243 278.187L912.145 283.189L917.733 285.521L919.817 280.519L924.871 282.642L927.202 277.08L922.136 274.969L924.428 269.498L929.481 271.608L931.8 266.046L926.746 263.935L929.039 258.464L934.092 260.574L936.411 255.025L931.357 252.915L933.649 247.443L938.703 249.554L940.826 244.473L935.616 242.298L933.506 247.339L928.036 245.059L930.146 240.018L924.545 237.725L922.435 242.767L916.965 240.474L919.075 235.432L913.5 233.101L911.39 238.142L906.493 236.097L904.213 241.633L909.111 243.679L906.818 249.15L901.921 247.105L899.59 252.667L904.5 254.712L902.221 260.184L897.31 258.138L894.992 263.688L899.889 265.746L897.597 271.218L892.7 269.159L890.59 274.201L895.617 276.285Z" fill="white"/>
<path d="M420.109 995.874C470.059 1017.37 506.398 1032.96 508.677 1033.87C514.315 1035.89 520.354 1036.52 526.286 1035.71C532.218 1034.9 537.87 1032.68 542.765 1029.23C547.66 1025.79 551.656 1021.21 554.417 1015.9C557.177 1010.59 558.621 1004.69 558.627 998.701C558.646 989.109 554.948 979.883 548.311 972.96L547.673 972.204C542.372 965.417 510.383 948.443 388.159 906.353C371.67 900.647 370.042 900.035 368.557 899.24C361.15 895.062 355.335 888.547 352.022 880.714C348.709 872.881 348.084 864.17 350.245 855.944C352.406 847.718 357.231 840.44 363.965 835.246C370.7 830.053 378.965 827.238 387.469 827.24C393.108 827.266 1845.84 1134.58 1935.5 1153" stroke="white" stroke-width="0.81" stroke-miterlimit="10"/>
<path d="M201.984 901.949C262.106 927.834 323.4 954.513 385.814 981.414" stroke="white" stroke-width="0.81" stroke-miterlimit="10"/>
<path d="M-639.502 908.999C-452.002 951.999 123.418 1074.28 127.599 1074.01C151.109 1071.5 165.722 1057.18 165.722 1036.69C165.742 1031.6 164.71 1026.56 162.693 1021.89C160.676 1017.22 157.717 1013.01 154 1009.54C147.279 1003.16 69.0529 938.973 39.3826 914.612C32.1175 908.975 27.1122 900.921 25.2739 891.909C23.4355 882.898 24.8858 873.527 29.3618 865.493C33.8378 857.459 41.0434 851.295 49.6725 848.118C58.3016 844.941 67.7832 844.961 76.3988 848.175C77.9879 848.748 59.8444 840.984 161.62 884.768" stroke="white" stroke-width="0.81" stroke-miterlimit="10"/>
<path d="M412.385 1014.49C467.949 1038.38 500.328 1052.27 501.852 1052.82C513.996 1057.19 527.26 1057.35 539.504 1053.26C551.749 1049.18 562.261 1041.09 569.346 1030.3C576.432 1019.5 579.677 1006.64 578.559 993.78C577.442 980.918 572.026 968.807 563.185 959.4C551.645 945.448 502.633 924.488 394.763 887.296C387.156 884.691 379.967 882.229 378.091 881.486C374.645 879.434 371.968 876.306 370.472 872.585C368.975 868.863 368.741 864.753 369.806 860.886C370.871 857.018 373.176 853.608 376.367 851.177C379.558 848.747 383.458 847.432 387.469 847.434C393.981 847.877 1237.98 1029.81 1312.37 1045.07" stroke="white" stroke-width="0.81" stroke-miterlimit="10"/>
<path d="M378.092 1000C326.084 977.637 274.246 955.087 193.649 920.436" stroke="white" stroke-width="0.81" stroke-miterlimit="10"/>
<path d="M-605.509 1142.38C-548.903 1139.21 128.134 1094.18 129.085 1094.18H129.528C163.21 1090.58 185.834 1067.52 185.834 1036.69C185.816 1028.86 184.208 1021.12 181.107 1013.93C178.006 1006.74 173.477 1000.26 167.795 994.871C159.172 986.703 56.2902 902.484 51.8748 898.928L51.6012 898.693C48.5166 896.391 46.2393 893.172 45.0953 889.497C43.9513 885.822 43.9992 881.879 45.2323 878.232C46.4653 874.586 48.8202 871.423 51.9599 869.197C55.0996 866.971 58.8629 865.796 62.7113 865.839C64.9325 865.823 67.1385 866.207 69.2236 866.972C71.9458 868.093 78.8229 871.232 154.171 903.669" stroke="white" stroke-width="0.81" stroke-miterlimit="10"/>
<path d="M250.111 860.094H262.094" stroke="white" stroke-width="0.81" stroke-miterlimit="10"/>
<path d="M256.102 854.102V866.073" stroke="white" stroke-width="0.81" stroke-miterlimit="10"/>
<path d="M273.386 860.094H285.355" stroke="white" stroke-width="0.81" stroke-miterlimit="10"/>
<path d="M279.377 854.102V866.073" stroke="white" stroke-width="0.81" stroke-miterlimit="10"/>
<path d="M298.029 860.094H310.012" stroke="white" stroke-width="0.81" stroke-miterlimit="10"/>
<path d="M304.02 854.102V866.086" stroke="white" stroke-width="0.81" stroke-miterlimit="10"/>
<path d="M124.461 711.027H136.418" stroke="white" stroke-width="0.81" stroke-miterlimit="10"/>
<path d="M130.439 705.047V717.019" stroke="white" stroke-width="0.81" stroke-miterlimit="10"/>
<path d="M111.983 692.972L123.953 681" stroke="white" stroke-width="0.81" stroke-miterlimit="10"/>
<path d="M111.983 681L123.953 692.972" stroke="white" stroke-width="0.81" stroke-miterlimit="10"/>
<path d="M177.705 794.856V722.986L141.731 687.006H130.113" stroke="white" stroke-width="0.81" stroke-miterlimit="10"/>
<path d="M130.113 681V692.972" stroke="white" stroke-width="0.81" stroke-miterlimit="10"/>
<path d="M172.365 794.844H184.348V830.837H172.365V794.844Z" stroke="white" stroke-width="0.81" stroke-miterlimit="10"/>
<path d="M178.357 830.836V877.876" stroke="white" stroke-width="0.81" stroke-miterlimit="10"/>
<path d="M154.13 902.199C154.13 906.94 155.537 911.574 158.171 915.515C160.806 919.456 164.551 922.527 168.932 924.338C173.312 926.149 178.131 926.62 182.78 925.69C187.428 924.761 191.696 922.472 195.043 919.116C198.39 915.759 200.666 911.484 201.583 906.832C202.5 902.181 202.016 897.362 200.193 892.986C198.37 888.609 195.29 884.873 191.343 882.248C187.395 879.623 182.758 878.229 178.018 878.242C171.676 878.26 165.601 880.791 161.123 885.282C156.645 889.773 154.13 895.856 154.13 902.199Z" stroke="white" stroke-width="0.81" stroke-miterlimit="10"/>
<path d="M157.868 902.198C157.868 906.2 159.055 910.111 161.279 913.438C163.504 916.764 166.664 919.355 170.362 920.883C174.059 922.412 178.127 922.808 182.05 922.023C185.973 921.237 189.575 919.305 192.399 916.471C195.224 913.637 197.144 910.029 197.916 906.103C198.689 902.176 198.279 898.109 196.739 894.416C195.199 890.723 192.598 887.57 189.266 885.356C185.933 883.142 182.018 881.968 178.017 881.981C172.668 881.998 167.543 884.136 163.766 887.925C159.989 891.715 157.868 896.848 157.868 902.198Z" stroke="white" stroke-width="0.81" stroke-miterlimit="10"/>
<path d="M187.135 910.027C186.012 911.335 184.62 912.384 183.055 913.104C181.489 913.823 179.786 914.196 178.063 914.196C176.34 914.196 174.637 913.823 173.071 913.104C171.506 912.384 170.114 911.335 168.991 910.027" stroke="white" stroke-width="0.81" stroke-miterlimit="10"/>
<path d="M175.83 890.461C173.097 890.975 170.63 892.428 168.856 894.569C167.081 896.71 166.111 899.404 166.114 902.185C166.109 903.58 166.351 904.965 166.83 906.276" stroke="white" stroke-width="0.81" stroke-miterlimit="10"/>
<path d="M189.336 906.287C189.815 904.977 190.058 903.592 190.053 902.197C190.055 899.416 189.085 896.722 187.31 894.581C185.536 892.439 183.069 890.986 180.336 890.473" stroke="white" stroke-width="0.81" stroke-miterlimit="10"/>
<path d="M172.092 902.197C172.092 903.383 172.443 904.541 173.101 905.527C173.76 906.512 174.695 907.28 175.79 907.734C176.885 908.187 178.089 908.306 179.252 908.075C180.414 907.844 181.481 907.273 182.319 906.435C183.157 905.597 183.728 904.529 183.959 903.367C184.19 902.204 184.072 900.999 183.618 899.904C183.165 898.809 182.397 897.873 181.412 897.215C180.426 896.557 179.268 896.205 178.083 896.205C176.494 896.205 174.97 896.836 173.846 897.96C172.723 899.084 172.092 900.608 172.092 902.197Z" stroke="white" stroke-width="0.81" stroke-miterlimit="10"/>
<path d="M175.087 888.492C175.087 889.085 175.262 889.664 175.592 890.157C175.921 890.65 176.389 891.034 176.936 891.26C177.483 891.487 178.086 891.547 178.667 891.431C179.248 891.315 179.782 891.03 180.201 890.611C180.62 890.192 180.905 889.658 181.021 889.077C181.136 888.496 181.077 887.893 180.85 887.346C180.623 886.798 180.239 886.33 179.747 886.001C179.254 885.672 178.675 885.496 178.082 885.496C177.288 885.496 176.526 885.812 175.964 886.374C175.402 886.936 175.087 887.698 175.087 888.492Z" stroke="white" stroke-width="0.81" stroke-miterlimit="10"/>
<path d="M164.628 906.601C164.117 906.899 163.705 907.342 163.445 907.873C163.184 908.405 163.087 909.002 163.166 909.589C163.245 910.175 163.495 910.726 163.886 911.17C164.277 911.615 164.791 911.933 165.363 912.086C165.935 912.238 166.54 912.218 167.1 912.027C167.66 911.837 168.152 911.484 168.512 911.014C168.872 910.545 169.085 909.979 169.124 909.388C169.163 908.797 169.027 908.208 168.731 907.695C168.331 907.007 167.675 906.506 166.906 906.301C166.137 906.096 165.318 906.204 164.628 906.601Z" stroke="white" stroke-width="0.81" stroke-miterlimit="10"/>
<path d="M191.538 906.6C191.025 906.303 190.436 906.165 189.844 906.204C189.253 906.242 188.686 906.455 188.216 906.815C187.745 907.176 187.392 907.668 187.201 908.229C187.011 908.79 186.99 909.395 187.144 909.968C187.297 910.54 187.616 911.055 188.062 911.446C188.507 911.837 189.059 912.087 189.646 912.164C190.234 912.241 190.831 912.143 191.363 911.881C191.894 911.618 192.336 911.204 192.632 910.691C193.029 910.003 193.137 909.186 192.931 908.419C192.726 907.652 192.225 906.998 191.538 906.6Z" stroke="white" stroke-width="0.81" stroke-miterlimit="10"/>
<path d="M156.15 1103.33L147.684 1094.87L139.205 1103.33" stroke="white" stroke-width="0.81" stroke-miterlimit="10"/>
<path d="M99.778 1213.91V1178.36L147.709 1130.44V1094.87" stroke="white" stroke-width="0.81" stroke-miterlimit="10"/>
<path d="M171.584 1202.32L183.566 1190.34" stroke="white" stroke-width="0.81" stroke-miterlimit="10"/>
<path d="M183.566 1202.32L171.584 1190.34" stroke="white" stroke-width="0.81" stroke-miterlimit="10"/>
<path d="M141.575 1136.58L177.562 1172.57V1184.18" stroke="white" stroke-width="0.81" stroke-miterlimit="10"/>
<path d="M183.566 1184.18H171.584" stroke="white" stroke-width="0.81" stroke-miterlimit="10"/>
<path d="M117.493 1226.26C118.648 1228.85 119.243 1231.66 119.238 1234.5H113.859C113.864 1237.44 112.998 1240.31 111.372 1242.75C109.745 1245.2 107.429 1247.1 104.719 1248.23C102.009 1249.36 99.0251 1249.65 96.1457 1249.08C93.2662 1248.51 90.6205 1247.1 88.5431 1245.03C86.4658 1242.96 85.0503 1240.31 84.4758 1237.43C83.9012 1234.55 84.1935 1231.57 85.3156 1228.86C86.4376 1226.14 88.339 1223.82 90.7792 1222.19C93.2194 1220.56 96.0886 1219.69 99.0239 1219.69V1214.3C102.218 1214.3 105.367 1215.05 108.213 1216.51C111.059 1217.96 113.52 1220.06 115.396 1222.65" stroke="white" stroke-width="0.81" stroke-miterlimit="10"/>
<path d="M105.016 1234.5C105.016 1233.32 104.664 1232.16 104.006 1231.17C103.348 1230.19 102.412 1229.42 101.317 1228.97C100.222 1228.51 99.0176 1228.39 97.8554 1228.62C96.6932 1228.86 95.6256 1229.43 94.7877 1230.26C93.9498 1231.1 93.3792 1232.17 93.148 1233.33C92.9168 1234.5 93.0355 1235.7 93.4889 1236.8C93.9424 1237.89 94.7103 1238.83 95.6956 1239.48C96.6809 1240.14 97.8392 1240.49 99.0242 1240.49C100.613 1240.49 102.137 1239.86 103.261 1238.74C104.384 1237.62 105.016 1236.09 105.016 1234.5Z" stroke="white" stroke-width="0.81" stroke-miterlimit="10"/>
<path d="M102.02 1234.5C102.02 1233.91 101.844 1233.33 101.515 1232.84C101.185 1232.34 100.718 1231.96 100.17 1231.73C99.6228 1231.51 99.0205 1231.45 98.4394 1231.56C97.8583 1231.68 97.3245 1231.96 96.9055 1232.38C96.4866 1232.8 96.2013 1233.34 96.0857 1233.92C95.9701 1234.5 96.0295 1235.1 96.2562 1235.65C96.4829 1236.2 96.8669 1236.66 97.3595 1236.99C97.8522 1237.32 98.4313 1237.5 99.0238 1237.5C99.8183 1237.5 100.58 1237.18 101.142 1236.62C101.704 1236.06 102.02 1235.3 102.02 1234.5Z" stroke="white" stroke-width="0.81" stroke-miterlimit="10"/>
<path d="M101.264 1253.81C101.264 1253.36 101.132 1252.93 100.886 1252.56C100.64 1252.19 100.29 1251.91 99.8807 1251.74C99.4714 1251.57 99.021 1251.52 98.5864 1251.61C98.1518 1251.7 97.7526 1251.91 97.4393 1252.22C97.126 1252.54 96.9126 1252.94 96.8262 1253.37C96.7397 1253.81 96.7841 1254.26 96.9537 1254.67C97.1232 1255.07 97.4104 1255.42 97.7788 1255.67C98.1472 1255.92 98.5803 1256.05 99.0234 1256.05C99.3176 1256.05 99.6089 1255.99 99.8807 1255.88C100.153 1255.77 100.399 1255.6 100.608 1255.39C100.816 1255.18 100.981 1254.94 101.093 1254.67C101.206 1254.39 101.264 1254.1 101.264 1253.81Z" stroke="white" stroke-width="0.81" stroke-miterlimit="10"/>
<path d="M101.264 1224.18C101.261 1223.74 101.127 1223.31 100.88 1222.94C100.632 1222.58 100.281 1222.29 99.8717 1222.12C99.4622 1221.96 99.0121 1221.91 98.5784 1222C98.1447 1222.09 97.7468 1222.3 97.4348 1222.62C97.1228 1222.93 96.9107 1223.33 96.8253 1223.77C96.7399 1224.2 96.785 1224.65 96.9549 1225.06C97.1249 1225.47 97.412 1225.82 97.7801 1226.06C98.1482 1226.31 98.5808 1226.44 99.0233 1226.44C99.3186 1226.44 99.6111 1226.38 99.8837 1226.27C100.156 1226.15 100.404 1225.99 100.612 1225.78C100.82 1225.57 100.985 1225.32 101.097 1225.05C101.209 1224.77 101.265 1224.48 101.264 1224.18Z" stroke="white" stroke-width="0.81" stroke-miterlimit="10"/>
<path d="M91.2469 1241.59C91.6247 1241.36 91.927 1241.03 92.1159 1240.63C92.3049 1240.23 92.3721 1239.79 92.309 1239.35C92.246 1238.91 92.0556 1238.5 91.7616 1238.18C91.4677 1237.85 91.0832 1237.61 90.6565 1237.5C90.2298 1237.39 89.7798 1237.41 89.3628 1237.55C88.9458 1237.69 88.5805 1237.96 88.3126 1238.31C88.0446 1238.66 87.886 1239.08 87.8565 1239.52C87.827 1239.96 87.9281 1240.4 88.147 1240.78C88.2951 1241.04 88.4935 1241.27 88.7305 1241.45C88.9675 1241.63 89.2383 1241.76 89.527 1241.84C89.8158 1241.91 90.1167 1241.93 90.412 1241.89C90.7073 1241.84 90.9912 1241.74 91.2469 1241.59Z" stroke="white" stroke-width="0.81" stroke-miterlimit="10"/>
<path d="M116.88 1226.79C117.264 1226.57 117.573 1226.24 117.769 1225.84C117.965 1225.44 118.039 1225 117.981 1224.56C117.923 1224.12 117.736 1223.71 117.444 1223.37C117.152 1223.04 116.768 1222.8 116.34 1222.69C115.912 1222.57 115.46 1222.59 115.04 1222.73C114.62 1222.87 114.253 1223.13 113.983 1223.49C113.713 1223.84 113.553 1224.26 113.524 1224.7C113.495 1225.14 113.598 1225.59 113.819 1225.97C113.965 1226.23 114.16 1226.45 114.394 1226.63C114.627 1226.81 114.894 1226.94 115.178 1227.02C115.463 1227.1 115.76 1227.11 116.052 1227.08C116.344 1227.04 116.626 1226.94 116.88 1226.79Z" stroke="white" stroke-width="0.81" stroke-miterlimit="10"/>
<path d="M81.1657 1226.79C81.5495 1227.01 81.9902 1227.11 82.4323 1227.09C82.8744 1227.06 83.2979 1226.9 83.6493 1226.63C84.0008 1226.36 84.2643 1225.99 84.4066 1225.57C84.549 1225.15 84.5637 1224.7 84.449 1224.27C84.3343 1223.84 84.0953 1223.46 83.7621 1223.17C83.429 1222.87 83.0167 1222.69 82.5775 1222.63C82.1382 1222.57 81.6918 1222.64 81.2944 1222.84C80.8971 1223.04 80.5667 1223.35 80.3451 1223.73C80.1962 1223.98 80.0993 1224.27 80.06 1224.56C80.0207 1224.85 80.0397 1225.15 80.116 1225.43C80.1924 1225.72 80.3244 1225.98 80.5046 1226.22C80.6848 1226.45 80.9095 1226.65 81.1657 1226.79Z" stroke="white" stroke-width="0.81" stroke-miterlimit="10"/>
<path d="M106.837 1241.62C107.221 1241.84 107.662 1241.94 108.104 1241.91C108.546 1241.88 108.97 1241.72 109.321 1241.45C109.673 1241.18 109.936 1240.81 110.078 1240.39C110.221 1239.97 110.236 1239.52 110.121 1239.09C110.006 1238.67 109.767 1238.28 109.434 1237.99C109.101 1237.7 108.689 1237.51 108.249 1237.45C107.81 1237.39 107.364 1237.47 106.966 1237.66C106.569 1237.86 106.238 1238.17 106.017 1238.55C105.87 1238.81 105.774 1239.09 105.736 1239.38C105.698 1239.67 105.717 1239.97 105.793 1240.25C105.869 1240.54 106.001 1240.81 106.18 1241.04C106.359 1241.27 106.583 1241.47 106.837 1241.62Z" stroke="white" stroke-width="0.81" stroke-miterlimit="10"/>
<path d="M385.95 998.666L391.418 1000.95L389.133 1006.42L383.665 1004.13L385.95 998.666Z" fill="white"/>
<path d="M390.563 987.67L396.029 989.959L393.74 995.426L388.274 993.137L390.563 987.67Z" fill="white"/>
<path d="M395.179 976.612L400.646 978.898L398.36 984.367L392.893 982.081L395.179 976.612Z" fill="white"/>
<path d="M389.102 1006.43L394.568 1008.71L392.28 1014.18L386.814 1011.89L389.102 1006.43Z" fill="white"/>
<path d="M393.707 995.501L399.174 997.789L396.886 1003.26L391.419 1000.97L393.707 995.501Z" fill="white"/>
<path d="M398.327 984.413L403.795 986.697L401.511 992.167L396.042 989.882L398.327 984.413Z" fill="white"/>
<path d="M397.02 1003.24L402.486 1005.53L400.197 1010.99L394.731 1008.71L397.02 1003.24Z" fill="white"/>
<path d="M401.618 992.206L407.086 994.492L404.8 999.961L399.332 997.674L401.618 992.206Z" fill="white"/>
<path d="M406.216 981.234L411.684 983.521L409.397 988.99L403.929 986.702L406.216 981.234Z" fill="white"/>
<path d="M400.152 1011.04L405.619 1013.32L403.333 1018.79L397.866 1016.5L400.152 1011.04Z" fill="white"/>
<path d="M404.752 1000.02L410.219 1002.3L407.93 1007.77L402.463 1005.48L404.752 1000.02Z" fill="white"/>
<path d="M409.349 989.06L414.816 991.348L412.529 996.816L407.062 994.528L409.349 989.06Z" fill="white"/>
<path d="M391.533 968.023L425.658 982.353L406.798 1027.47L372.674 1013.2L391.533 968.023ZM419.25 980.764L417.153 985.766L411.683 983.473L413.767 978.471L408.192 976.139L406.095 981.142L400.625 978.862L402.722 973.86L397.134 971.528L395.05 976.53L389.997 974.407L387.665 979.969L392.732 982.08L390.439 987.551L385.386 985.44L383.067 991.003L388.121 993.113L385.829 998.585L380.775 996.474L378.457 1002.02L383.51 1004.13L381.218 1009.61L376.164 1007.5L374.041 1012.58L379.251 1014.75L381.361 1009.71L386.832 1011.99L384.722 1017.03L390.322 1019.32L392.432 1014.28L397.903 1016.57L395.793 1021.62L401.367 1023.95L403.477 1018.91L408.374 1020.95L410.654 1015.42L405.756 1013.37L408.049 1007.9L412.946 1009.94L415.277 1004.38L410.367 1002.34L412.647 996.865L417.557 998.91L419.875 993.361L414.978 991.303L417.27 985.831L422.168 987.89L424.278 982.848L419.25 980.764Z" fill="white"/>
</svg>
