<svg width="40" height="40" viewBox="0 0 40 40" fill="none" xmlns="http://www.w3.org/2000/svg">
<g clip-path="url(#clip0_53809_26469)">
<path fill-rule="evenodd" clip-rule="evenodd" d="M10.9903 12.8725C11.3067 12.3488 13.0495 10.4438 14.2932 10.5013C14.665 10.5321 14.9936 10.757 15.2607 11.0178C15.8738 11.6166 17.629 13.881 17.7286 14.3575C17.971 15.5262 16.5783 16.1999 17.0045 17.3778C18.0911 20.0366 19.9634 21.9088 22.6233 22.9943C23.8003 23.4205 24.474 22.0279 25.6428 22.2713C26.1183 22.3709 28.3839 24.126 28.9826 24.7391C29.2425 25.0051 29.4684 25.3347 29.4992 25.7065C29.5454 27.0159 27.5222 28.7833 27.1278 29.0092C26.1974 29.6747 24.9834 29.6634 23.5035 28.9753C19.3739 27.2572 12.7743 20.7822 11.0242 16.4967C10.3546 15.0251 10.3084 13.803 10.9903 12.8725Z" stroke="#FF6E00" stroke-width="1.5" stroke-linecap="round" stroke-linejoin="round"/>
</g>
<defs>
<clipPath id="clip0_53809_26469">
<rect width="40" height="40" rx="20" fill="white"/>
</clipPath>
</defs>
</svg>
