<svg width="20" height="20" viewBox="0 0 20 20" fill="none" xmlns="http://www.w3.org/2000/svg">
<path fill-rule="evenodd" clip-rule="evenodd" d="M10 0C4.48 0 0 4.48 0 10C0 15.52 4.48 20 10 20C15.52 20 20 15.52 20 10C20 4.48 15.52 0 10 0Z" fill="#B2B4B3"/>
<path d="M7.5 6.529C7.65867 6.389 7.83133 6.256 8.018 6.13C8.20933 6.004 8.41467 5.89433 8.634 5.801C8.85333 5.70767 9.09133 5.63533 9.348 5.584C9.60467 5.528 9.88233 5.5 10.181 5.5C10.587 5.5 10.9557 5.556 11.287 5.668C11.623 5.78 11.91 5.941 12.148 6.151C12.386 6.35633 12.5703 6.606 12.701 6.9C12.8317 7.194 12.897 7.523 12.897 7.887C12.897 8.24167 12.8457 8.54967 12.743 8.811C12.6403 9.06767 12.512 9.29167 12.358 9.483C12.204 9.67433 12.0337 9.84 11.847 9.98C11.665 10.12 11.4923 10.253 11.329 10.379C11.1657 10.5003 11.0233 10.6217 10.902 10.743C10.7853 10.8597 10.7153 10.9927 10.692 11.142L10.531 12.164H9.348L9.229 11.023C9.201 10.8037 9.23133 10.6123 9.32 10.449C9.41333 10.281 9.53467 10.1293 9.684 9.994C9.838 9.854 10.0083 9.721 10.195 9.595C10.3817 9.46433 10.5567 9.32433 10.72 9.175C10.8833 9.021 11.0187 8.85067 11.126 8.664C11.238 8.47267 11.294 8.24633 11.294 7.985C11.294 7.817 11.2613 7.66767 11.196 7.537C11.1353 7.40167 11.049 7.28733 10.937 7.194C10.825 7.096 10.6897 7.02133 10.531 6.97C10.377 6.91867 10.209 6.893 10.027 6.893C9.761 6.893 9.53467 6.92333 9.348 6.984C9.166 7.04 9.00967 7.10533 8.879 7.18C8.753 7.25 8.64567 7.31533 8.557 7.376C8.46833 7.432 8.389 7.46 8.319 7.46C8.151 7.46 8.02967 7.39 7.955 7.25L7.5 6.529ZM8.823 14.782C8.823 14.6373 8.84867 14.4997 8.9 14.369C8.956 14.2383 9.03067 14.1263 9.124 14.033C9.21733 13.9397 9.32933 13.865 9.46 13.809C9.59067 13.753 9.73067 13.725 9.88 13.725C10.0293 13.725 10.167 13.753 10.293 13.809C10.4237 13.865 10.5357 13.9397 10.629 14.033C10.727 14.1263 10.804 14.2383 10.86 14.369C10.916 14.4997 10.944 14.6373 10.944 14.782C10.944 14.9313 10.916 15.0713 10.86 15.202C10.804 15.328 10.727 15.4377 10.629 15.531C10.5357 15.6243 10.4237 15.6967 10.293 15.748C10.167 15.804 10.0293 15.832 9.88 15.832C9.73067 15.832 9.59067 15.804 9.46 15.748C9.32933 15.6967 9.21733 15.6243 9.124 15.531C9.03067 15.4377 8.956 15.328 8.9 15.202C8.84867 15.0713 8.823 14.9313 8.823 14.782Z" fill="white"/>
</svg>
