<svg width="128" height="128" viewBox="0 0 128 128" fill="none" xmlns="http://www.w3.org/2000/svg">
<g clip-path="url(#clip0_53796_35371)">
<path fill-rule="evenodd" clip-rule="evenodd" d="M78.3249 62.0876C78.3726 62.2243 78.4506 62.3484 78.5529 62.4508C78.6553 62.5531 78.7794 62.6311 78.9161 62.6788V63.0703H76.6967C76.389 63.0524 76.0997 62.9176 75.8881 62.6935C75.6765 62.4694 75.5586 62.1729 75.5584 61.8646V60.2908H88.0038C88.0038 60.2908 88.0038 60.3893 88.0038 60.8327C88.0038 61.2761 87.7445 61.7765 87.0289 62.2432C86.6633 62.4817 81.3248 65.8446 79.7691 66.7703C79.724 66.7893 79.6865 66.8228 79.6626 66.8656C79.6386 66.9083 79.6296 66.9578 79.6369 67.0062H84.908C84.908 67.0062 84.908 66.5758 84.908 66.4669C84.91 66.2945 84.8498 66.1273 84.7383 65.9958C84.6268 65.8643 84.4717 65.7775 84.3013 65.7513V65.3701H86.5233C86.8308 65.3874 87.1201 65.5216 87.3317 65.7453C87.5434 65.969 87.6614 66.2652 87.6616 66.5732V68.1445H75.3121C75.3121 68.1445 75.3121 68.0485 75.3121 67.6026C75.3121 67.1566 75.5714 66.6614 76.287 66.1947L83.3783 61.7402C83.6376 61.5768 83.5572 61.4238 83.5572 61.4238H78.299C78.299 61.4238 78.299 62.0124 78.3249 62.0876ZM115.949 60.2908C116.859 60.2908 117.367 60.8638 117.367 61.8102V63.7367C117.367 64.5845 116.709 64.9553 115.824 64.9553H115.42C115.644 65.0113 115.841 65.1421 115.98 65.3261C116.273 65.7305 116.934 66.7988 117.292 67.2655C117.376 67.3741 117.483 67.462 117.607 67.5223C117.73 67.5825 117.865 67.6135 118.002 67.6129V68.1315H115.314C114.928 68.1437 114.546 68.048 114.212 67.8551C113.878 67.6623 113.604 67.38 113.421 67.0399C113.11 66.5213 112.596 65.7435 112.345 65.3183C112.268 65.2135 112.17 65.1267 112.056 65.064C111.942 65.0013 111.816 64.9642 111.686 64.9553H108.381V68.4063H106.345C105.482 68.4063 105.101 67.67 105.101 67.0088V61.5198C105.095 61.3328 105.031 61.1521 104.92 61.0019C104.808 60.8518 104.653 60.7393 104.476 60.6797V60.2908H115.949ZM114.082 63.8144V61.8231C114.088 61.7713 114.081 61.7189 114.063 61.67C114.045 61.6211 114.016 61.577 113.978 61.5411C113.94 61.5053 113.894 61.4786 113.845 61.4632C113.795 61.4478 113.742 61.4441 113.691 61.4524H108.381V63.8144H114.082ZM90.4073 61.5302C90.4012 61.3431 90.3381 61.1624 90.2264 61.0123C90.1147 60.8621 89.9598 60.7497 89.7825 60.6901V60.3012H101.484C102.394 60.3012 102.899 60.8742 102.899 61.8206V68.1393H99.6169V64.9631H93.7002V68.4063H91.6648C90.8014 68.4063 90.4177 67.67 90.4177 67.0088L90.4073 61.5302ZM93.7002 63.8144H99.6169V61.8231C99.6218 61.7714 99.6149 61.7192 99.5966 61.6706C99.5784 61.6219 99.5493 61.5781 99.5115 61.5423C99.4738 61.5066 99.4284 61.4799 99.3788 61.4643C99.3293 61.4487 99.2768 61.4447 99.2254 61.4524H94.0917C94.0403 61.4447 93.9878 61.4487 93.9382 61.4643C93.8887 61.4799 93.8433 61.5066 93.8056 61.5423C93.7678 61.5781 93.7387 61.6219 93.7205 61.6706C93.7022 61.7192 93.6953 61.7714 93.7002 61.8231V63.8144ZM62.566 60.3012C62.7404 60.2919 62.9149 60.3199 63.0777 60.3831C63.2406 60.4463 63.3882 60.5434 63.5107 60.6679C63.6332 60.7924 63.728 60.9415 63.7886 61.1053C63.8492 61.2692 63.8744 61.444 63.8624 61.6183V66.5447C63.853 66.6116 63.8587 66.6798 63.8789 66.7443C63.8991 66.8088 63.9334 66.868 63.9793 66.9176C64.0252 66.9672 64.0816 67.0061 64.1443 67.0312C64.207 67.0564 64.2746 67.0674 64.342 67.0632H69.5484V61.5198C69.5423 61.3328 69.4791 61.1521 69.3674 61.0019C69.2558 60.8518 69.1009 60.7393 68.9235 60.6797V60.2908H72.8801V68.1859H61.7311C60.8703 68.1859 60.4347 67.5637 60.4347 66.8117V61.6624C60.4561 61.4582 60.4085 61.2528 60.2995 61.0789C60.1905 60.905 60.0263 60.7727 59.8332 60.703V60.2908H62.566M48.2875 60.2908C48.4619 60.2816 48.6364 60.3095 48.7992 60.3727C48.9621 60.4359 49.1097 60.533 49.2322 60.6575C49.3548 60.782 49.4495 60.9311 49.5101 61.095C49.5707 61.2588 49.5959 61.4337 49.5839 61.6079V66.5006C49.5839 66.9181 49.6824 67.0529 50.0221 67.0529H55.861V66.3528C55.8549 66.1658 55.7918 65.9851 55.6801 65.8349C55.5684 65.6848 55.4135 65.5724 55.2362 65.5127V65.1238H57.4037C58.1375 65.1238 58.6016 65.6579 58.6016 66.4928V68.1859H47.4526C46.5892 68.1859 46.1562 67.5637 46.1562 66.8117V61.6624C46.1777 61.4582 46.1301 61.2528 46.021 61.0789C45.912 60.905 45.7478 60.7727 45.5547 60.703V60.2908H48.2875Z" fill="white"/>
<path d="M26.0773 59.7436C26.0776 59.8145 26.1044 59.8827 26.1523 59.935C26.2003 59.9872 26.266 60.0197 26.3366 60.0262C26.4584 60.0262 26.5492 59.8991 26.5362 59.7436C26.5329 59.7128 26.5268 59.6825 26.5181 59.6528C26.4373 59.6652 26.3551 59.6652 26.2743 59.6528C26.2169 59.6445 26.1611 59.6279 26.1084 59.6035C26.0916 59.6509 26.0854 59.7013 26.0903 59.7513M29.5231 65.6033C29.7357 65.8963 30.5161 66.822 30.6458 67.3431C30.7798 67.7205 30.7853 68.1317 30.6613 68.5125C30.5317 68.9533 30.3528 69.5496 30.7754 69.6845C31.1981 69.8193 31.377 69.3111 31.4599 68.9066C31.5977 68.4661 31.8629 68.0763 32.2222 67.7865C32.4815 67.6076 32.4193 66.8764 31.9785 66.6949C31.5377 66.5134 30.9051 66.2567 30.5654 65.7537C30.2258 65.2507 30.078 64.8722 29.7072 64.9214C29.3364 64.9707 29.3183 65.3104 29.5283 65.6033M26.0384 65.4867C26.4765 65.608 26.8858 65.8161 27.2421 66.0984C27.5984 66.3808 27.8944 66.7317 28.1126 67.1305C28.6986 68.1858 28.7479 68.3829 29.0564 68.2843C29.365 68.1858 29.1886 67.6024 28.8931 66.9257C28.6656 66.343 28.4059 65.7735 28.1152 65.2196C28.0107 65.0182 27.843 64.8567 27.6379 64.7598C27.4328 64.6628 27.2015 64.6358 26.9796 64.6829C26.6236 64.7361 26.263 64.7526 25.9036 64.7322C25.5639 64.7166 25.4835 65.3337 26.0358 65.4789M17.0959 65.3181C16.7847 65.2844 16.7329 65.3622 16.7018 65.7719C16.7322 65.9747 16.7747 66.1756 16.8288 66.3734C16.9429 66.7131 17.1711 67.0372 16.9273 67.0061C16.6836 66.975 16.051 66.4875 15.5143 65.7848C14.9776 65.0822 15.1876 64.0969 15.2057 63.8532C15.2239 63.6095 15.4158 63.5265 15.172 63.0053C14.9555 62.5042 14.8664 61.9573 14.9128 61.4133C14.9465 60.9259 15.4676 60.5836 15.548 60.2595C15.6284 59.9354 15.7061 59.5932 16.0977 59.4065C16.4892 59.2198 16.9273 58.709 17.35 58.4653C17.7726 58.2216 18.5867 57.7808 18.8305 57.5371C19.0742 57.2933 19.4812 57.0652 19.3983 56.7592C19.3153 56.4533 19.139 56.1266 19.4812 56.1266C19.6424 56.1406 19.8047 56.1186 19.9563 56.0621C20.1079 56.0056 20.245 55.916 20.3576 55.7999C20.6843 55.5095 20.8762 55.0376 21.7084 54.7938C22.5407 54.5501 22.9426 53.9486 24.0653 53.8993C25.188 53.8501 25.8802 53.9149 26.601 53.9149C27.2574 53.9118 27.9117 53.8406 28.5534 53.7023C29.2198 53.57 29.3987 53.277 29.9846 52.9529C30.5706 52.6288 31.3977 52.6262 31.7711 52.5951C32.1444 52.564 32.3259 52.7248 32.1781 52.9841C31.9773 53.2893 31.8137 53.6175 31.6907 53.9616C31.6103 54.2753 32.0407 54.3894 32.0407 54.519C32.0407 54.6486 31.6829 54.5527 31.421 54.4386C31.1592 54.3245 30.9984 53.9979 31.0814 53.8371C31.1643 53.6763 31.8592 53.2511 31.8281 53.0074C31.797 52.7637 31.4547 52.9089 31.0166 53.0567C30.8133 53.1314 30.6422 53.2743 30.5325 53.4611C30.4229 53.6479 30.3813 53.8669 30.415 54.0808C30.4461 54.5346 30.8195 54.6331 30.7547 54.7964C30.6899 54.9598 30.1713 54.6824 29.6502 54.519C29.129 54.3557 27.0963 54.2908 26.4792 54.2908C25.4825 54.2598 24.4855 54.3363 23.5053 54.519C22.4681 54.7627 21.4881 55.2969 21.1303 55.8854C20.7725 56.474 20.4146 56.404 19.992 56.404C19.8002 56.404 19.782 56.4818 19.8209 56.5881C19.936 56.713 20.0754 56.8131 20.2306 56.8822C20.3857 56.9513 20.5534 56.988 20.7232 56.99C21.0395 56.99 21.138 57.0859 21.081 57.2674C21.024 57.4489 20.8969 57.5267 20.2669 57.5837L20.0594 57.6123C19.6679 57.703 19.9531 57.8715 19.9531 57.9649C19.9531 58.0582 19.6576 58.1334 19.5124 58.1179C19.3445 58.0998 19.1749 58.1285 19.0223 58.2008C18.996 58.2148 18.9723 58.2332 18.9523 58.2553C18.8382 58.3875 18.8797 58.5146 18.7241 58.5897C18.4722 58.6657 18.2093 58.699 17.9463 58.6883C17.7472 58.7401 17.5543 58.8131 17.3707 58.9061C17.0129 59.1187 16.9455 59.4428 17.4329 59.6061C17.6478 59.7014 17.8837 59.7396 18.1176 59.7169C18.3516 59.6941 18.5757 59.6113 18.7682 59.4765C18.8512 59.422 18.9368 59.3728 19.0275 59.3261C19.2116 59.0979 19.1909 59.0461 19.082 58.875C18.9731 58.7038 19.1157 58.5483 19.4735 58.5975C19.8313 58.6468 20.1554 58.9061 20.3498 58.8257C20.5443 58.7453 20.3343 58.6312 20.4146 58.4679C20.495 58.3045 20.871 58.3875 21.2443 58.4523C21.5529 58.5042 21.7629 58.6675 22.3048 58.7712C22.6081 58.7712 22.8648 58.7894 22.9997 58.7712C23.3575 58.7401 23.6816 58.722 23.6997 58.5431C23.7179 58.3642 23.2926 58.2501 23.4404 58.0401C23.5882 57.83 24.1664 57.8119 24.449 57.9104C25.1517 58.1542 24.8768 58.7168 25.8025 58.8309C26.7281 58.945 27.327 58.7401 28.0582 58.8516C28.6029 58.9022 29.1359 59.0397 29.6372 59.2587C29.9457 59.4376 29.8809 59.7306 29.6372 59.811C29.3935 59.8913 29.0823 59.6813 28.6779 59.6321C28.5228 59.5983 28.3629 59.5931 28.206 59.6165C28.206 59.6165 27.8715 60.4903 26.9796 60.5033C26.0021 60.5162 25.8206 59.9536 25.831 59.3832C25.806 59.3482 25.7715 59.3212 25.7317 59.3052C25.6919 59.2892 25.6483 59.2849 25.6061 59.2927C25.5639 59.3006 25.5248 59.3204 25.4935 59.3498C25.4621 59.3791 25.4398 59.4168 25.4291 59.4583C25.3617 59.6502 25.5121 59.9769 25.761 60.2751C25.8762 60.3731 25.9821 60.4816 26.0773 60.5992C26.2873 60.8585 26.0773 61.2681 25.7662 60.9259C25.3157 60.4287 24.7413 60.06 24.1016 59.8576C22.9037 59.5647 21.5658 59.3987 21.1925 59.4946C20.9513 59.5544 20.7276 59.6698 20.5391 59.8317C20.2798 60.091 20.1839 60.4384 19.8002 60.8688C19.2323 61.5196 18.3197 61.4056 17.5574 61.5352C16.7951 61.6648 16.5099 62.2353 16.7173 63.0364C16.8033 63.349 16.9604 63.6374 17.1763 63.8791C18.0085 64.5403 19.0379 64.9162 19.2505 64.6155C19.2905 64.5606 19.3114 64.4941 19.3101 64.4262C19.2297 64.0762 18.6749 62.7435 19.7483 62.2897C20.8217 61.836 21.2132 61.8334 22.1544 61.6389C23.0956 61.4445 24.3427 61.1852 24.9261 61.2215C25.5095 61.2578 25.9632 61.4808 26.2614 61.3511C26.5596 61.2215 27.0392 61.3511 27.2363 61.2215C27.4333 61.0918 27.69 60.8948 28.6338 60.8948C29.5776 60.8948 30.651 61.1229 30.9414 60.83C31.2318 60.537 30.8454 60.5707 30.4539 60.5058C30.0624 60.441 30.0313 59.8862 30.7806 59.6917C31.5299 59.4972 31.2992 58.8153 30.5862 58.8153C29.8731 58.8153 29.3157 58.556 28.3097 58.359C27.3037 58.1619 27.5318 57.9701 26.7151 57.9364C25.8984 57.9026 26.1966 57.3193 27.3322 57.3193C28.4678 57.3193 29.6087 57.3193 30.651 56.7333C31.6933 56.1473 31.5273 55.4965 31.7555 55.0739C31.9837 54.6512 32.6345 54.4568 33.1867 54.5216C34.3118 54.647 35.4497 54.5918 36.5573 54.3583C38.0534 54.0341 38.3127 53.9382 38.8338 53.6763C39.355 53.4145 39.7439 53.2537 39.6479 53.8708C39.5572 54.4464 39.2979 54.8794 38.5564 55.538L38.3775 55.6936L38.2686 55.7895L36.8088 57.0729C36.394 57.4333 36.5703 59.1265 39.4613 60.2466C40.4984 60.651 40.8899 60.1091 41.1518 62.6527C41.1594 62.7102 41.1734 62.7667 41.1933 62.8212C41.5348 65.9684 40.9135 69.1451 39.4115 71.9316C37.9094 74.7181 35.5972 76.9834 32.7805 78.428C29.9638 79.8726 26.7751 80.4286 23.6356 80.0225C20.4962 79.6164 17.5539 78.2673 15.1975 76.1535C12.841 74.0398 11.1813 71.2608 10.4377 68.1837C9.6941 65.1067 9.90155 61.8765 11.0327 58.9198C12.1638 55.9632 14.1653 53.4194 16.7728 51.6244C19.3802 49.8294 22.471 48.8678 25.6365 48.8666C25.6365 48.8666 26.6736 48.8666 27.1066 48.8666C28.4108 48.8692 28.6234 47.998 28.6234 47.998L29.1886 48.0758C29.2402 48.5443 29.2315 49.0175 29.1627 49.4837C28.9501 51.5269 27.2285 52.6651 25.3954 52.634H25.0843C21.6694 52.6165 18.3874 53.9562 15.9603 56.3586C13.5333 58.7609 12.1599 62.029 12.1424 65.4439C12.1248 68.8588 13.4646 72.1408 15.8668 74.5679C18.2691 76.9951 21.5372 78.3685 24.952 78.386C25.8833 78.3218 26.7657 77.9455 27.4567 77.3177C28.0219 76.6721 28.1723 75.9072 27.7159 75.2979C27.5665 75.1043 27.366 74.9563 27.1369 74.8706C26.9078 74.785 26.6593 74.765 26.4195 74.8131C25.7923 75.4273 25.2141 76.0896 24.6902 76.794C24.2986 77.2814 23.7775 77.6107 23.0619 77.4811C22.3463 77.3514 21.3092 76.8588 20.9514 76.4699C20.5935 76.081 20.4639 75.915 19.8779 75.2331C19.292 74.5512 18.8045 73.1588 18.9679 72.8607C19.1312 72.5625 19.3257 72.5677 20.0724 73.12C20.8191 73.6722 20.8917 73.6074 21.0758 73.1485C21.2599 72.6895 20.8165 72.8529 21.1225 72.1373C21.4284 71.4217 21.024 70.1538 21.024 69.4718C21.0225 69.1644 20.9974 68.8575 20.9488 68.554C20.9488 67.8824 21.7084 67.5739 22.074 67.5169C22.1112 67.5119 22.1489 67.5188 22.1819 67.5365C22.215 67.5542 22.2416 67.5818 22.2581 67.6154C22.3644 68.5307 22.2348 70.6205 21.9988 71.3205C21.7059 72.1995 21.8718 72.6895 21.8536 73.0111C21.8199 73.61 21.5295 73.7267 21.3014 73.9548C21.0732 74.183 21.2366 74.6368 21.5607 74.769C21.8848 74.9012 22.9608 75.3861 22.7974 75.0594C22.5836 74.6581 22.4564 74.2165 22.4241 73.763C22.4241 73.3403 22.7482 73.4389 23.3004 73.9263C23.8527 74.4138 24.4231 73.9419 24.9442 73.8459C25.0817 73.82 25.3435 73.667 25.3461 73.2237C25.3461 73.0396 25.7169 72.7051 25.9243 72.7388C26.1317 72.7725 26.4092 72.3628 26.6814 72.0543C27.677 70.929 27.4593 70.4986 26.6814 68.707C26.2795 67.9965 25.9191 67.4105 24.5683 66.9516C23.7166 66.6695 22.8044 66.6238 21.9288 66.8194C21.8302 66.8135 21.7314 66.8276 21.6384 66.8609C21.2469 67.0061 20.7776 67.4339 20.6324 68.331C20.5692 68.7218 20.5259 69.1155 20.5028 69.5107C20.4691 69.9982 20.145 69.9334 19.852 69.3137C19.5445 68.5382 19.3895 67.7106 19.3957 66.8764C19.4294 66.2593 19.0379 66.2593 18.5841 66.0312C18.1304 65.803 17.8996 65.9975 17.8063 65.6396C17.713 65.2818 17.324 65.5074 17.0959 65.3181ZM16.1651 62.9016C16.108 62.6242 16.0743 61.8645 15.7061 61.5871C15.338 61.3096 15.0709 61.3278 15.1046 61.8463C15.1383 62.3649 15.2187 62.7098 15.5661 62.9379C15.9136 63.1661 16.2221 63.1687 16.1651 62.8938M15.9058 59.8602C15.8631 59.9306 15.8378 60.0101 15.832 60.0921C15.8261 60.1742 15.8399 60.2564 15.8721 60.3321C15.9888 60.5914 16.1314 60.4462 16.2636 60.6744C16.3958 60.9026 16.2636 61.1126 16.3932 61.2422C16.5229 61.3719 16.6862 61.1774 16.751 60.9829C16.8159 60.7885 17.2566 60.9181 17.5963 61.0477C17.9359 61.1774 18.133 60.9674 18.1148 60.5603C18.0967 60.1532 17.757 59.8758 17.1866 59.6813C16.6162 59.4869 16.1495 59.4713 15.9032 59.8602M31.2006 62.3701C31.3458 62.2943 31.5027 62.2434 31.6648 62.2197C32.2844 62.1549 33.1945 62.2197 33.1608 61.5352V61.4808C33.0052 61.2993 32.6267 61.2215 31.9889 61.3615C30.9489 61.6416 29.8738 61.7691 28.7971 61.74C27.5293 61.7089 26.9433 61.6441 26.2277 62.0978C25.5121 62.5516 23.2045 62.7486 22.2296 63.1713C21.2547 63.5939 21.7733 64.1151 22.5537 64.1151C23.3341 64.1151 26.4558 63.4643 28.569 62.9768C29.7305 62.7175 30.5991 62.4997 31.1929 62.3805" fill="white"/>
</g>
<defs>
<clipPath id="clip0_53796_35371">
<rect width="108" height="32.1459" fill="white" transform="translate(10 48)"/>
</clipPath>
</defs>
</svg>
