<svg width="128" height="128" viewBox="0 0 128 128" fill="none" xmlns="http://www.w3.org/2000/svg">
<g clip-path="url(#clip0_53796_35371)">
<path fill-rule="evenodd" clip-rule="evenodd" d="M10 61.9356L11.1337 58.2871H19.0337L16.2777 66.5248L10 61.9356Z" fill="white"/>
<path fill-rule="evenodd" clip-rule="evenodd" d="M22.6753 81.0766L29.6827 75.9507L36.7384 77.0301L38.1073 81.1912H42.7026L40.0371 73.1103L28.6033 71.3373L22.3195 76.2522L29.3933 54.7051L33.6689 67.7009L38.5053 68.4547L31.4497 46.998H27.3369L16.084 81.1912L22.6753 81.0766Z" fill="white"/>
<path fill-rule="evenodd" clip-rule="evenodd" d="M48.9492 62.02L47.7672 58.2871H39.9336L42.6714 66.6093L48.9492 62.02Z" fill="white"/>
<path d="M70.919 59.8789H68.6816V68.3096H70.919V59.8789Z" fill="white"/>
<path d="M95.6553 59.8789H93.418V68.3096H95.6553V59.8789Z" fill="white"/>
<path fill-rule="evenodd" clip-rule="evenodd" d="M79.3937 63.5399C79.327 63.6209 79.2432 63.6862 79.1483 63.731C79.0534 63.7758 78.9498 63.7991 78.8449 63.7992H75.6789V61.9901H78.8449C78.9492 61.9902 79.0523 62.013 79.147 62.0567C79.2417 62.1004 79.3259 62.1641 79.3937 62.2434C79.558 62.4198 79.6468 62.6536 79.6409 62.8946C79.6451 63.0142 79.6254 63.1334 79.583 63.2452C79.5405 63.3571 79.4762 63.4593 79.3937 63.5459M81.3053 64.7521C81.6752 64.2223 81.8673 63.5888 81.8541 62.9429C81.8692 62.5456 81.8055 62.1493 81.6669 61.7767C81.5282 61.4041 81.3172 61.0626 81.046 60.7719C80.7767 60.4934 80.4517 60.2747 80.0921 60.1303C79.7326 59.9858 79.3466 59.9188 78.9595 59.9337H73.4355V68.3764H75.6789V65.7833H77.2167L79.3515 68.3101H82.0471L79.9002 65.723C80.4561 65.5333 80.9445 65.1853 81.3053 64.7219V64.7521Z" fill="white"/>
<path fill-rule="evenodd" clip-rule="evenodd" d="M86.2801 59.8789H84.0488V68.3096H91.4482V66.1446H86.2801V59.8789Z" fill="white"/>
<path fill-rule="evenodd" clip-rule="evenodd" d="M105.763 65.2401H105.667L101.126 60.1563V60.1503L100.963 59.9633L100.903 59.903L100.885 59.8789H98.3457V68.3096H100.577V62.9846H100.673L105.407 68.2915V68.3096H108.013V59.8789H105.763V65.2401Z" fill="white"/>
<path fill-rule="evenodd" clip-rule="evenodd" d="M118 59.8789H110.143V68.3096H118V66.2592H112.374V65.0591H116.559V63.1173H112.374V61.9233H118V59.8789Z" fill="white"/>
<path fill-rule="evenodd" clip-rule="evenodd" d="M59.4503 64.5167L60.2524 61.9658H62.4897L63.2978 64.5167H59.4503ZM62.5862 59.8792H58.6784L55.832 68.3099H58.2442L58.8473 66.4525H63.9129L64.5159 68.3099H66.9281L64.0998 59.8672L62.5862 59.8792Z" fill="white"/>
</g>
<defs>
<clipPath id="clip0_53796_35371">
<rect width="108" height="34.1932" fill="white" transform="translate(10 47)"/>
</clipPath>
</defs>
</svg>
