<svg width="128" height="128" viewBox="0 0 128 128" fill="none" xmlns="http://www.w3.org/2000/svg">
<g clip-path="url(#clip0_53796_35371)">
<path d="M34.002 64.677C34.002 67.8364 36.3678 70.0445 39.7563 70.0445H61.0931V65.5543L59.6933 63.8144H41.8585C41.6324 63.8198 41.4076 63.7793 41.1976 63.6953C40.9877 63.6112 40.797 63.4854 40.6371 63.3255C40.4772 63.1656 40.3514 62.9749 40.2673 62.765C40.1833 62.555 40.1428 62.3302 40.1482 62.1041V51.9631C40.1431 51.7371 40.1839 51.5124 40.2681 51.3026C40.3522 51.0928 40.478 50.9023 40.6378 50.7424C40.7977 50.5826 40.9882 50.4568 41.198 50.3726C41.4078 50.2885 41.6325 50.2477 41.8585 50.2527H59.7672L61.0931 48.7618V43.998H39.7563C36.3678 43.998 34.002 46.216 34.002 49.368V64.677Z" fill="white"/>
<path d="M87.7603 70.0445H94.1012V67.8783L88.7756 61.7838L89.5149 61.7271C92.5486 61.4806 94.6705 59.2873 94.6705 56.3842V49.368C94.6705 46.7089 92.694 43.998 88.9185 43.998H66.2461V70.0445H72.3923V61.7714H80.9709L87.7603 70.0445ZM72.3849 50.2601H86.814C87.0412 50.255 87.2671 50.2962 87.4779 50.3813C87.6887 50.4664 87.88 50.5935 88.04 50.7549C88.2001 50.9164 88.3256 51.1087 88.4088 51.3202C88.4921 51.5318 88.5313 51.758 88.5242 51.9852V53.7917C88.531 54.0188 88.4915 54.2449 88.4081 54.4562C88.3247 54.6676 88.1992 54.8598 88.0392 55.0212C87.8793 55.1825 87.6882 55.3097 87.4775 55.3949C87.2669 55.4801 87.0411 55.5215 86.814 55.5167H72.3849V50.2601Z" fill="white"/>
<path d="M37.8204 82.2631H38.7199C38.6905 82.3947 38.6518 82.524 38.604 82.65C38.5387 82.809 38.4561 82.9602 38.3576 83.101C38.2457 83.2644 38.1141 83.4134 37.9658 83.5446C37.7966 83.6864 37.6028 83.7958 37.394 83.8675C37.1457 83.956 36.8838 84.0003 36.6202 83.9981C36.3185 84.0044 36.0188 83.9471 35.7407 83.8299C35.4625 83.7127 35.2122 83.5383 35.006 83.3179C34.5832 82.8427 34.3496 82.2289 34.3496 81.5928C34.3496 80.9568 34.5832 80.3429 35.006 79.8677C35.2123 79.6477 35.4627 79.4736 35.7409 79.3568C36.019 79.24 36.3186 79.1832 36.6202 79.19C36.8715 79.1859 37.1216 79.2251 37.3595 79.3058C37.5631 79.3715 37.754 79.4715 37.9239 79.6016C38.0747 79.7232 38.2089 79.864 38.3231 80.0205C38.4251 80.1608 38.5111 80.3121 38.5794 80.4715C38.6391 80.6074 38.6861 80.7484 38.7199 80.8929H37.8204C37.7273 80.6584 37.5795 80.4497 37.3891 80.2842C37.1721 80.1098 36.8981 80.0221 36.6202 80.0378C36.4308 80.0328 36.2426 80.069 36.0686 80.1439C35.8945 80.2188 35.7389 80.3305 35.6123 80.4715C35.357 80.7957 35.2182 81.1962 35.2182 81.6088C35.2182 82.0214 35.357 82.422 35.6123 82.7462C35.7393 82.8862 35.8952 82.9971 36.0692 83.0711C36.2432 83.1451 36.4312 83.1806 36.6202 83.175C36.9034 83.188 37.1809 83.0929 37.3965 82.9088C37.5909 82.7336 37.7369 82.5112 37.8204 82.2631Z" fill="white"/>
<path d="M38.9297 83.9201L40.5981 79.25H41.8648L43.5184 83.9201H42.5524L42.1975 82.9343H40.2383L39.8859 83.9201H38.9297ZM40.5315 82.1186H41.9313L41.298 80.253H41.1476L40.5315 82.1186Z" fill="white"/>
<path d="M44.1191 83.9227V79.2625H46.2533C46.4506 79.256 46.647 79.2918 46.8294 79.3675C47.0117 79.4431 47.1758 79.5569 47.3105 79.7011C47.4513 79.8524 47.5608 80.0299 47.6327 80.2236C47.7046 80.4174 47.7375 80.6234 47.7295 80.8298C47.7378 81.0248 47.7069 81.2194 47.6388 81.4023C47.5706 81.5851 47.4666 81.7525 47.3327 81.8945C47.2079 82.0273 47.0581 82.1342 46.8919 82.2091C46.7257 82.284 46.5464 82.3253 46.3642 82.3307L47.865 83.9325H46.7536L45.2528 82.3307H44.9866V83.9227H44.1191ZM44.9866 81.5199H46.2188C46.3029 81.5198 46.386 81.5017 46.4625 81.4669C46.539 81.432 46.6072 81.3812 46.6624 81.3178C46.7867 81.184 46.8547 81.0075 46.8522 80.8249C46.8579 80.6319 46.7911 80.4437 46.6649 80.2975C46.6099 80.233 46.5415 80.1812 46.4645 80.1459C46.3874 80.1106 46.3036 80.0925 46.2188 80.093H44.9866V81.5199Z" fill="white"/>
<path d="M49.6532 83.9219L48.0488 79.2617H49.0149L50.215 82.8622H50.3506L51.5483 79.2617H52.5168L50.9223 83.9219H49.6532Z" fill="white"/>
<path d="M53.1543 83.9219V79.2617H54.0218V83.9219H53.1543Z" fill="white"/>
<path d="M55.1211 83.9219V79.2617H55.9886V83.0964H58.1868V83.9219H55.1211Z" fill="white"/>
<path d="M58.9219 83.9219V79.2617H59.7869V83.0964H61.9876V83.9219H58.9219Z" fill="white"/>
<path d="M62.7207 83.9219V79.2617H65.8554V80.0627H63.5882V81.1963H65.7199V81.9972H63.5882V83.1309H65.8554V83.9219H62.7207Z" fill="white"/>
<path d="M68.5898 83.9224V79.2622H70.7215C70.9168 79.2572 71.111 79.2937 71.2911 79.3693C71.4712 79.4449 71.6333 79.5579 71.7665 79.7008C71.9081 79.8516 72.0184 80.029 72.0907 80.2228C72.1631 80.4166 72.1961 80.6228 72.1879 80.8295C72.1952 81.0244 72.1639 81.2188 72.0958 81.4015C72.0277 81.5842 71.9242 81.7516 71.7911 81.8942C71.6658 82.0271 71.5156 82.1341 71.349 82.2089C71.1824 82.2838 71.0027 82.325 70.8201 82.3304L72.3209 83.9322H71.2144L69.7136 82.3304H69.4475V83.9224H68.5898ZM69.4573 81.5196H70.6895C70.7736 81.5198 70.8568 81.5019 70.9334 81.467C71.01 81.4322 71.0781 81.3811 71.1331 81.3175C71.2583 81.1841 71.3272 81.0075 71.3253 80.8246C71.3311 80.6316 71.2643 80.4434 71.138 80.2972C71.0826 80.2326 71.0138 80.1809 70.9363 80.1455C70.8588 80.1102 70.7746 80.0922 70.6895 80.0927H69.4573V81.5196Z" fill="white"/>
<path d="M72.623 83.9201L74.2914 79.25H75.5581L77.2241 83.9201H76.258L75.8958 82.9343H73.9242L73.5916 83.9201H72.623ZM74.2249 82.1186H75.6247L74.9913 80.253H74.8583L74.2249 82.1186Z" fill="white"/>
<path d="M80.958 82.2632H81.86C81.8306 82.3947 81.7919 82.524 81.7441 82.6501C81.6786 82.8089 81.596 82.9601 81.4977 83.1011C81.386 83.2638 81.2553 83.4128 81.1083 83.5447C80.9382 83.6864 80.7436 83.7958 80.5341 83.8675C80.2868 83.9564 80.0256 84.0006 79.7628 83.9981C79.461 84.0046 79.1613 83.9474 78.8831 83.8302C78.605 83.713 78.3547 83.5384 78.1486 83.3179C77.7258 82.8428 77.4922 82.2289 77.4922 81.5928C77.4922 80.9568 77.7258 80.3429 78.1486 79.8677C78.3548 79.6476 78.6052 79.4734 78.8834 79.3566C79.1615 79.2398 79.4612 79.1831 79.7628 79.19C80.0099 79.187 80.2558 79.2262 80.4898 79.3059C80.6936 79.371 80.8845 79.4711 81.0541 79.6016C81.2063 79.7225 81.3414 79.8634 81.4558 80.0205C81.5601 80.1602 81.6494 80.3106 81.722 80.4691C81.7816 80.6049 81.8287 80.746 81.8624 80.8905H80.9605C80.8693 80.6556 80.7221 80.4467 80.5317 80.2818C80.3145 80.1076 80.0407 80.0198 79.7628 80.0353C79.5737 80.0292 79.3856 80.0644 79.2115 80.1385C79.0374 80.2126 78.8816 80.3237 78.7548 80.4641C78.4996 80.7883 78.3608 81.1889 78.3608 81.6015C78.3608 82.014 78.4996 82.4146 78.7548 82.7388C78.8816 82.8792 79.0374 82.9904 79.2115 83.0644C79.3856 83.1385 79.5737 83.1737 79.7628 83.1676C80.0458 83.1799 80.3231 83.0848 80.5391 82.9014C80.7317 82.7286 80.876 82.5086 80.958 82.2632Z" fill="white"/>
<path d="M82.6914 83.9219V79.2617H83.5589V83.9219H82.6914Z" fill="white"/>
<path d="M84.6602 83.9219V79.2617H85.8258L87.5263 82.4975H87.6593V79.2617H88.5268V83.9219H87.3611L85.6607 80.6862H85.5252V83.9219H84.6602Z" fill="white"/>
<path d="M93.1632 83.9218L93.0942 83.387H93.0622C92.9686 83.5049 92.8562 83.6065 92.7295 83.6877C92.4222 83.8889 92.0618 83.9936 91.6945 83.9883C91.3931 83.9946 91.0938 83.9373 90.8161 83.8201C90.5384 83.7029 90.2885 83.5284 90.0828 83.3081C89.6584 82.8337 89.4238 82.2195 89.4238 81.583C89.4238 80.9465 89.6584 80.3324 90.0828 79.8579C90.2886 79.638 90.5386 79.4639 90.8163 79.3471C91.094 79.2303 91.3933 79.1735 91.6945 79.1802C91.9802 79.1762 92.2641 79.2281 92.5299 79.333C92.7664 79.4242 92.9819 79.5625 93.1632 79.7397C93.3238 79.8971 93.4616 80.0763 93.5723 80.272C93.6736 80.4519 93.7491 80.6452 93.7966 80.8462H92.902C92.8128 80.6002 92.6494 80.388 92.4344 80.2388C92.2195 80.0896 91.9635 80.0108 91.7019 80.0132C91.5089 80.0098 91.3176 80.0492 91.1416 80.1284C90.9657 80.2077 90.8094 80.3249 90.6841 80.4716C90.4301 80.7963 90.2921 81.1967 90.2921 81.6089C90.2921 82.0212 90.4301 82.4215 90.6841 82.7462C90.8111 82.8863 90.967 82.9972 91.141 83.0712C91.315 83.1452 91.503 83.1806 91.692 83.1751C91.8845 83.178 92.0753 83.1393 92.2514 83.0617C92.4034 82.9992 92.5403 82.9051 92.6531 82.7857C92.7431 82.6872 92.8194 82.5769 92.8798 82.4579C92.9277 82.3708 92.9547 82.2738 92.9587 82.1745V82.1425H91.793V81.4574H93.8262V83.9218H93.1632Z" fill="white"/>
</g>
<defs>
<clipPath id="clip0_53796_35371">
<rect width="60.6685" height="40" fill="white" transform="translate(34 44)"/>
</clipPath>
</defs>
</svg>
