<svg width="128" height="128" viewBox="0 0 128 128" fill="none" xmlns="http://www.w3.org/2000/svg">
<path d="M21 67.8623H30.1324L29.0917 87.3813L44.5708 60.5117L35.4311 60.519L36.4963 41L21 67.8623Z" fill="white"/>
<path d="M51.6297 60.3888C49.9264 60.3888 48.4988 59.9184 47.347 58.9776C46.1951 58.0368 45.6224 56.7483 45.629 55.1121H47.347C47.347 56.2574 47.7437 57.145 48.5373 57.775C49.3308 58.4049 50.3657 58.7199 51.6419 58.7199C52.6061 58.7519 53.5543 58.4675 54.3416 57.91C54.6877 57.668 54.9685 57.3441 55.1591 56.9673C55.3496 56.5905 55.444 56.1723 55.4338 55.7502C55.4454 55.3638 55.362 54.9804 55.1908 54.6338C55.0196 54.2872 54.766 53.9879 54.4521 53.7622C53.5644 53.1525 52.5985 52.6654 51.5806 52.3142C49.8626 51.6761 48.7254 51.1688 48.1691 50.7925C46.7947 49.909 46.1075 48.6818 46.1075 47.1111C46.0872 46.4845 46.2157 45.862 46.4823 45.2946C46.7489 44.7273 47.1461 44.2311 47.6415 43.8469C48.7212 43.0311 50.0418 42.598 51.3949 42.6158C52.748 42.6335 54.0568 43.1012 55.1147 43.945C56.1537 44.8286 56.6732 46.023 56.6732 47.5283H54.9552C54.9552 46.4975 54.6157 45.6998 53.9367 45.1354C53.2577 44.5709 52.3741 44.2878 51.2861 44.2862C50.4037 44.2558 49.5362 44.5191 48.8195 45.0347C48.4993 45.2743 48.2425 45.5884 48.0714 45.9499C47.9003 46.3113 47.8201 46.7091 47.8378 47.1086C47.8172 47.5 47.8912 47.8906 48.0536 48.2473C48.2159 48.604 48.4618 48.9164 48.7704 49.158C49.3922 49.6488 50.3412 50.1356 51.6174 50.6183C53.3681 51.3055 54.538 51.8372 55.127 52.2135C56.485 53.0971 57.164 54.2752 57.164 55.7477C57.1813 56.3979 57.042 57.0428 56.758 57.6279C56.474 58.2131 56.0535 58.7214 55.532 59.1101C54.4167 59.9719 53.0387 60.4234 51.6297 60.3888Z" fill="white"/>
<path d="M68.8092 42.9121V44.5319H64.0234V60.0922H62.3054V44.5319H57.5195V42.9121H68.8092Z" fill="white"/>
<path d="M80.86 60.0922L79.2647 55.8708H71.1165L69.5212 60.0922H67.7051L74.3071 42.9121H76.0741L82.6761 60.0922H80.86ZM71.7301 54.2534H78.6511L75.1906 45.0498L71.7301 54.2534Z" fill="white"/>
<path d="M95.8557 60.0928L89.8181 53.2208H85.9895V60.0928H84.2715V42.9127H90.4072C91.0856 42.902 91.759 43.0303 92.3858 43.2899C93.0127 43.5495 93.5796 43.9349 94.0518 44.4221C94.539 44.8943 94.9244 45.4613 95.184 46.0881C95.4436 46.715 95.5719 47.3884 95.5611 48.0668C95.5703 49.2007 95.1938 50.3041 94.4935 51.196C93.8217 52.0945 92.8661 52.7397 91.7816 53.0269L98.0154 60.0953L95.8557 60.0928ZM85.9895 44.5326V51.6009H90.4072C90.8626 51.6069 91.3143 51.5172 91.7328 51.3375C92.1514 51.1578 92.5275 50.8922 92.8369 50.5579C93.162 50.2305 93.4185 49.8416 93.5913 49.4138C93.7641 48.986 93.8497 48.5281 93.8432 48.0668C93.852 47.6033 93.7675 47.1428 93.5946 46.7127C93.4218 46.2826 93.1641 45.8918 92.8369 45.5634C92.5255 45.2325 92.1487 44.97 91.7304 44.7925C91.3121 44.615 90.8615 44.5265 90.4072 44.5326H85.9895Z" fill="white"/>
<path d="M107.956 42.9121V44.5319H103.17V60.0922H101.452V44.5319H96.666V42.9121H107.956Z" fill="white"/>
<path d="M50.6197 85.2405L44.9258 66.9609H49.4956L53.2826 80.4105L57.0793 66.9609H61.6492L55.9553 85.2405H50.6197Z" fill="white"/>
<path d="M78.5334 82.8666C76.7314 84.6245 74.3138 85.6084 71.7964 85.6084C69.2791 85.6084 66.8614 84.6245 65.0594 82.8666C63.2138 81.0373 62.291 78.781 62.291 76.0977C62.291 73.4143 63.2138 71.1596 65.0594 69.3336C66.8614 67.5757 69.2791 66.5918 71.7964 66.5918C74.3138 66.5918 76.7314 67.5757 78.5334 69.3336C80.379 71.1662 81.3018 73.4208 81.3018 76.0977C81.3018 78.7745 80.379 81.0308 78.5334 82.8666ZM67.9972 80.0245C69.0236 81 70.3854 81.5439 71.8013 81.5439C73.2173 81.5439 74.5791 81 75.6054 80.0245C76.6248 79.0166 77.1345 77.7077 77.1345 76.0977C77.1345 74.4876 76.6248 73.1787 75.6054 72.1708C74.5791 71.1954 73.2173 70.6515 71.8013 70.6515C70.3854 70.6515 69.0236 71.1954 67.9972 72.1708C66.9779 73.182 66.4682 74.4909 66.4682 76.0977C66.4682 77.7044 66.9779 79.0134 67.9972 80.0245Z" fill="white"/>
<path d="M88.4922 81.2204H94.7506V85.2405H84.3027V66.9609H88.475L88.4922 81.2204Z" fill="white"/>
<path d="M107.937 66.9609V70.9835H103.764V85.2405H99.5922V70.9835H95.4199V66.9609H107.956H107.937Z" fill="white"/>
</svg>
