<svg width="128" height="128" viewBox="0 0 128 128" fill="none" xmlns="http://www.w3.org/2000/svg">
<g clip-path="url(#clip0_53796_35371)">
<path d="M95.5469 79.5003C96.7074 79.2875 97.8292 79.0683 98.8801 78.8556V49.424C97.7711 49.1984 96.6558 48.9856 95.5469 48.7793V79.5003Z" fill="white"/>
<path d="M57.5754 46.2227C56.4536 46.2549 55.3318 46.3 54.2422 46.358V82.0498C55.3511 82.1014 56.4729 82.1465 57.5754 82.1788V46.2227Z" fill="white"/>
<path d="M83.5298 78.2641C82.2984 78.393 81.0026 78.5155 79.6616 78.6251H79.4875V46.7307C78.3657 46.6405 77.2503 46.5631 76.1543 46.4922V81.8552C77.3019 81.7778 78.4753 81.694 79.6358 81.5973C80.9639 81.4812 82.2662 81.3587 83.5041 81.2298L83.5298 78.2641Z" fill="white"/>
<path d="M93.214 76.9482C91.9762 77.1545 90.6867 77.3544 89.3457 77.5413H89.1588V47.781C88.0628 47.6263 86.9409 47.4844 85.832 47.3555V80.9713C86.9796 80.8359 88.1466 80.6811 89.3006 80.5199C90.59 80.333 91.931 80.1267 93.1689 79.9204L93.214 76.9482Z" fill="white"/>
<path d="M27.1953 49.8191V52.7784C28.1817 52.5591 29.2197 52.3464 30.2964 52.1336L30.4834 52.1014V79.3409C31.5987 79.5472 32.7141 79.7471 33.8165 79.934V51.4954H33.9519C35.0222 51.3148 36.0795 51.1472 37.111 50.9989V48.0332C36.0859 48.1815 35.0415 48.3491 34.01 48.5232C32.7979 48.7295 31.5729 48.9487 30.3544 49.1679C29.2584 49.3807 28.1946 49.5999 27.1953 49.8191Z" fill="white"/>
<path d="M69.231 82.1771C70.3335 82.1771 71.4553 82.1062 72.5642 82.0546V50.9919C72.5577 49.5207 71.9762 48.1104 70.9437 47.0623C69.9113 46.0142 68.5099 45.4114 67.039 45.3828H66.794C66.0577 45.3828 65.3286 45.5279 64.6485 45.8099C63.9683 46.0919 63.3504 46.5051 62.8301 47.0261C62.3098 47.547 61.8972 48.1654 61.616 48.8459C61.3349 49.5264 61.1906 50.2556 61.1914 50.9919V82.2609C62.2939 82.2609 63.4092 82.2609 64.5246 82.2609V68.077H69.231V82.1771ZM64.5246 64.3505V51.4561C64.5228 50.8381 64.7649 50.2444 65.1982 49.8038C65.6316 49.3632 66.2212 49.1113 66.8391 49.1029H66.9165C67.5293 49.113 68.1137 49.3631 68.5441 49.7996C68.9745 50.236 69.2165 50.8238 69.2181 51.4367V64.3312L64.5246 64.3505Z" fill="white"/>
<path d="M46.8511 46.8583L46.3289 46.9034C45.2329 47.0001 44.6977 47.0582 43.8209 47.1549L43.144 47.2322C41.9706 47.3612 40.7843 47.503 39.6367 47.6578V80.7836C40.765 80.9318 41.8868 81.0608 42.9699 81.1833V66.0388H44.5881C45.3097 66.0388 46.0017 66.3254 46.512 66.8357C47.0222 67.3459 47.3088 68.0379 47.3088 68.7595V81.6153C48.4113 81.7055 49.5331 81.7893 50.642 81.8667V67.844C50.6454 67.0531 50.3789 66.2848 49.8866 65.6659C49.3943 65.0469 48.7055 64.6145 47.9342 64.4399H47.8053V64.0015L47.9342 63.9692C48.7061 63.7957 49.3955 63.3635 49.888 62.7444C50.3805 62.1252 50.6466 61.3562 50.642 60.5651V50.3398C50.642 49.8559 50.5415 49.3774 50.3468 48.9344C50.1522 48.4914 49.8676 48.0937 49.5113 47.7664C49.1549 47.4391 48.7344 47.1894 48.2765 47.0331C47.8186 46.8768 47.3332 46.8172 46.8511 46.8583ZM47.3088 59.6174C47.3088 60.3389 47.0222 61.031 46.512 61.5412C46.0017 62.0514 45.3097 62.3381 44.5881 62.3381H42.9828V50.2173H43.1246C43.7693 50.1399 44.4721 50.069 45.149 50.0046C45.4239 49.9748 45.7019 50.0043 45.9643 50.091C46.2268 50.1778 46.4676 50.3198 46.6706 50.5074C46.8746 50.6953 47.0373 50.9236 47.1483 51.1778C47.2593 51.432 47.3161 51.7065 47.3153 51.9838L47.3088 59.6174Z" fill="white"/>
<path d="M63.9568 40.998C49.8956 40.998 36.3888 42.4616 24.8871 45.2339C24.2423 45.3886 23.5976 45.5433 22.998 45.7045V82.6729C23.6428 82.834 24.2488 82.9888 24.8871 83.1435C36.3888 85.9158 49.8956 87.3793 63.9568 87.3793C78.0181 87.3793 91.5249 85.9158 103.027 83.1435C103.671 82.9888 104.316 82.834 104.916 82.6729V45.7045C104.271 45.5433 103.665 45.3886 103.027 45.2339C91.5249 42.4616 78.0116 40.998 63.9568 40.998ZM103.226 46.8005V81.6155L103.104 81.6477C91.5765 84.4265 78.0374 85.8965 63.9568 85.8965C49.8762 85.8965 36.3372 84.4072 24.8097 81.6155H24.6872V46.8005L24.8097 46.7683C36.3372 43.9702 49.8698 42.5067 63.9568 42.5067C78.0439 42.5067 91.5765 43.9702 103.104 46.749L103.226 46.8005Z" fill="white"/>
</g>
<defs>
<clipPath id="clip0_53796_35371">
<rect width="81.9176" height="46.3813" fill="white" transform="translate(23 41)"/>
</clipPath>
</defs>
</svg>
